G04 #@! TF.GenerationSoftware,KiCad,Pcbnew,10.0.4*
G04 #@! TF.CreationDate,2026-07-23T08:16:46+10:00*
G04 #@! TF.ProjectId,Low_Current_Driver,4c6f775f-4375-4727-9265-6e745f447269,0.1*
G04 #@! TF.SameCoordinates,Original*
G04 #@! TF.FileFunction,Copper,L4,Bot*
G04 #@! TF.FilePolarity,Positive*
%FSLAX46Y46*%
G04 Gerber Fmt 4.6, Leading zero omitted, Abs format (unit mm)*
G04 Created by KiCad (PCBNEW 10.0.4) date 2026-07-23 08:16:46*
%MOMM*%
%LPD*%
G01*
G04 APERTURE LIST*
G04 Aperture macros list*
%AMRoundRect*
0 Rectangle with rounded corners*
0 $1 Rounding radius*
0 $2 $3 $4 $5 $6 $7 $8 $9 X,Y pos of 4 corners*
0 Add a 4 corners polygon primitive as box body*
4,1,4,$2,$3,$4,$5,$6,$7,$8,$9,$2,$3,0*
0 Add four circle primitives for the rounded corners*
1,1,$1+$1,$2,$3*
1,1,$1+$1,$4,$5*
1,1,$1+$1,$6,$7*
1,1,$1+$1,$8,$9*
0 Add four rect primitives between the rounded corners*
20,1,$1+$1,$2,$3,$4,$5,0*
20,1,$1+$1,$4,$5,$6,$7,0*
20,1,$1+$1,$6,$7,$8,$9,0*
20,1,$1+$1,$8,$9,$2,$3,0*%
G04 Aperture macros list end*
G04 #@! TA.AperFunction,ComponentPad*
%ADD10C,3.800000*%
G04 #@! TD*
G04 #@! TA.AperFunction,ComponentPad*
%ADD11RoundRect,0.250000X-1.050000X1.050000X-1.050000X-1.050000X1.050000X-1.050000X1.050000X1.050000X0*%
G04 #@! TD*
G04 #@! TA.AperFunction,ComponentPad*
%ADD12C,2.600000*%
G04 #@! TD*
G04 #@! TA.AperFunction,ComponentPad*
%ADD13RoundRect,0.250001X0.759999X-0.499999X0.759999X0.499999X-0.759999X0.499999X-0.759999X-0.499999X0*%
G04 #@! TD*
G04 #@! TA.AperFunction,ComponentPad*
%ADD14O,2.020000X1.500000*%
G04 #@! TD*
G04 #@! TA.AperFunction,ComponentPad*
%ADD15R,2.850000X2.850000*%
G04 #@! TD*
G04 #@! TA.AperFunction,ComponentPad*
%ADD16C,2.850000*%
G04 #@! TD*
G04 #@! TA.AperFunction,ComponentPad*
%ADD17R,1.600000X1.600000*%
G04 #@! TD*
G04 #@! TA.AperFunction,ComponentPad*
%ADD18O,1.600000X1.600000*%
G04 #@! TD*
G04 #@! TA.AperFunction,ViaPad*
%ADD19C,0.600000*%
G04 #@! TD*
G04 #@! TA.AperFunction,ViaPad*
%ADD20C,0.914400*%
G04 #@! TD*
G04 #@! TA.AperFunction,Conductor*
%ADD21C,0.254000*%
G04 #@! TD*
G04 #@! TA.AperFunction,Conductor*
%ADD22C,0.762000*%
G04 #@! TD*
G04 APERTURE END LIST*
D10*
X129900000Y-112620000D03*
D11*
X131977500Y-80000000D03*
D12*
X131977500Y-85080000D03*
X131977500Y-90160000D03*
X131977500Y-95240000D03*
D10*
X248150000Y-67120000D03*
X129900000Y-67120000D03*
D13*
X247860000Y-93120000D03*
D14*
X247860000Y-90120000D03*
D15*
X146200000Y-91670000D03*
D16*
X156200000Y-90170000D03*
X146200000Y-83670000D03*
X156200000Y-85170000D03*
D13*
X247860000Y-105120000D03*
D14*
X247860000Y-102120000D03*
D17*
X182010000Y-108200000D03*
D18*
X182010000Y-105660000D03*
X182010000Y-103120000D03*
X182010000Y-100580000D03*
X182010000Y-98040000D03*
X182010000Y-95500000D03*
X182010000Y-92960000D03*
X182010000Y-90420000D03*
X182010000Y-87880000D03*
X182010000Y-85340000D03*
X182010000Y-82800000D03*
X182010000Y-80260000D03*
X182010000Y-77720000D03*
X182010000Y-75180000D03*
X182010000Y-72640000D03*
X166770000Y-72640000D03*
X166770000Y-75180000D03*
X166770000Y-77720000D03*
X166770000Y-80260000D03*
X166770000Y-82800000D03*
X166770000Y-85340000D03*
X166770000Y-87880000D03*
X166770000Y-90420000D03*
X166770000Y-92960000D03*
X166770000Y-95500000D03*
X166770000Y-98040000D03*
X166770000Y-100580000D03*
X166770000Y-103120000D03*
X166770000Y-105660000D03*
X166770000Y-108200000D03*
D10*
X248150000Y-112620000D03*
D19*
X185400000Y-94120000D03*
X186900000Y-97870000D03*
D20*
X197650000Y-109870000D03*
X196535000Y-70547500D03*
X196400000Y-90120000D03*
X195900000Y-100120000D03*
X195900000Y-109870000D03*
X187400000Y-109870000D03*
X193900000Y-100120000D03*
X194150000Y-109870000D03*
X188900000Y-109870000D03*
X190650000Y-109870000D03*
X192400000Y-109870000D03*
X199150000Y-109870000D03*
X200650000Y-86370000D03*
X200650000Y-92734200D03*
X218400000Y-100120000D03*
X200650000Y-82370000D03*
X217900000Y-88370000D03*
D19*
X230000000Y-102220000D03*
X220000000Y-91820000D03*
X206400000Y-100220000D03*
X238400000Y-83820000D03*
X240000000Y-94420000D03*
X191400000Y-95020000D03*
D20*
X135650000Y-85120000D03*
D19*
X240800000Y-103220000D03*
D20*
X205382500Y-78370000D03*
D19*
X240600000Y-91220000D03*
X214800000Y-87620000D03*
X216400000Y-79820000D03*
X215400000Y-90220000D03*
X215400000Y-99820000D03*
X215400000Y-94820000D03*
X206000000Y-93220000D03*
D20*
X191212500Y-76120000D03*
D19*
X189600000Y-85420000D03*
X203900000Y-89120000D03*
X189650000Y-92620000D03*
D20*
X135650000Y-90120000D03*
D19*
X206400000Y-98620000D03*
X198400000Y-95020000D03*
X203900000Y-91120000D03*
X224800000Y-86620000D03*
X199600000Y-84620000D03*
X189600000Y-90620000D03*
X206400000Y-105220000D03*
X229400000Y-90420000D03*
X189650000Y-86620000D03*
X206000000Y-88420000D03*
X225000000Y-98420000D03*
D20*
X236650000Y-80870000D03*
X213400000Y-78120000D03*
X213400000Y-89870000D03*
X234900000Y-94370000D03*
X207900000Y-93370000D03*
X208150000Y-105370000D03*
X226400000Y-88870000D03*
X226650000Y-100870000D03*
D19*
X234400000Y-88370000D03*
X236400000Y-90370000D03*
X234600000Y-100390000D03*
X236600000Y-102390000D03*
X184900000Y-73370000D03*
X188433001Y-88586999D03*
D21*
X185400000Y-96370000D02*
X186900000Y-97870000D01*
X185400000Y-94120000D02*
X185400000Y-96370000D01*
D22*
X215900000Y-86370000D02*
X200650000Y-86370000D01*
X217900000Y-88370000D02*
X217900000Y-99620000D01*
X200650000Y-82370000D02*
X200650000Y-86370000D01*
X217900000Y-99620000D02*
X218400000Y-100120000D01*
X200650000Y-86370000D02*
X200650000Y-92734200D01*
X217900000Y-88370000D02*
X215900000Y-86370000D01*
D21*
X234400000Y-88370000D02*
X236400000Y-90370000D01*
X234600000Y-100390000D02*
X236600000Y-102390000D01*
X184900000Y-73370000D02*
X184900000Y-85053998D01*
X184900000Y-85053998D02*
X188433001Y-88586999D01*
M02*
