%TF.GenerationSoftware,KiCad,Pcbnew,10.0.4*%
%TF.CreationDate,2026-07-23T08:16:57+10:00*%
%TF.ProjectId,Low_Current_Driver,4c6f775f-4375-4727-9265-6e745f447269,0.1*%
%TF.SameCoordinates,Original*%
%TF.FileFunction,Drillmap*%
%TF.FilePolarity,Positive*%
%FSLAX45Y45*%
G04 Gerber Fmt 4.5, Leading zero omitted, Abs format (unit mm)*
G04 Created by KiCad (PCBNEW 10.0.4) date 2026-07-23 08:16:57*
%MOMM*%
%LPD*%
G01*
G04 APERTURE LIST*
%ADD10C,0.050000*%
%ADD11C,0.200000*%
%ADD12C,0.127000*%
G04 APERTURE END LIST*
D10*
X12565000Y-6312000D02*
X25340000Y-6312000D01*
X25340000Y-11612000D01*
X12565000Y-11612000D01*
X12565000Y-6312000D01*
D11*
D12*
X24526500Y-8648500D02*
X24653500Y-8775500D01*
X24653500Y-8648500D02*
X24526500Y-8775500D01*
X24526500Y-9548500D02*
X24653500Y-9675500D01*
X24653500Y-9548500D02*
X24526500Y-9675500D01*
X24526500Y-9848500D02*
X24653500Y-9975500D01*
X24653500Y-9848500D02*
X24526500Y-9975500D01*
X24526500Y-10748500D02*
X24653500Y-10875500D01*
X24653500Y-10748500D02*
X24526500Y-10875500D01*
D11*
X12823277Y-11925984D02*
X12823277Y-11725984D01*
X12823277Y-11725984D02*
X12870896Y-11725984D01*
X12870896Y-11725984D02*
X12899467Y-11735508D01*
X12899467Y-11735508D02*
X12918515Y-11754555D01*
X12918515Y-11754555D02*
X12928039Y-11773603D01*
X12928039Y-11773603D02*
X12937562Y-11811698D01*
X12937562Y-11811698D02*
X12937562Y-11840269D01*
X12937562Y-11840269D02*
X12928039Y-11878365D01*
X12928039Y-11878365D02*
X12918515Y-11897412D01*
X12918515Y-11897412D02*
X12899467Y-11916460D01*
X12899467Y-11916460D02*
X12870896Y-11925984D01*
X12870896Y-11925984D02*
X12823277Y-11925984D01*
X13023277Y-11925984D02*
X13023277Y-11792650D01*
X13023277Y-11830746D02*
X13032801Y-11811698D01*
X13032801Y-11811698D02*
X13042324Y-11802174D01*
X13042324Y-11802174D02*
X13061372Y-11792650D01*
X13061372Y-11792650D02*
X13080420Y-11792650D01*
X13147086Y-11925984D02*
X13147086Y-11792650D01*
X13147086Y-11725984D02*
X13137562Y-11735508D01*
X13137562Y-11735508D02*
X13147086Y-11745031D01*
X13147086Y-11745031D02*
X13156610Y-11735508D01*
X13156610Y-11735508D02*
X13147086Y-11725984D01*
X13147086Y-11725984D02*
X13147086Y-11745031D01*
X13270896Y-11925984D02*
X13251848Y-11916460D01*
X13251848Y-11916460D02*
X13242324Y-11897412D01*
X13242324Y-11897412D02*
X13242324Y-11725984D01*
X13375658Y-11925984D02*
X13356610Y-11916460D01*
X13356610Y-11916460D02*
X13347086Y-11897412D01*
X13347086Y-11897412D02*
X13347086Y-11725984D01*
X13604229Y-11925984D02*
X13604229Y-11725984D01*
X13604229Y-11725984D02*
X13670896Y-11868841D01*
X13670896Y-11868841D02*
X13737562Y-11725984D01*
X13737562Y-11725984D02*
X13737562Y-11925984D01*
X13918515Y-11925984D02*
X13918515Y-11821222D01*
X13918515Y-11821222D02*
X13908991Y-11802174D01*
X13908991Y-11802174D02*
X13889943Y-11792650D01*
X13889943Y-11792650D02*
X13851848Y-11792650D01*
X13851848Y-11792650D02*
X13832801Y-11802174D01*
X13918515Y-11916460D02*
X13899467Y-11925984D01*
X13899467Y-11925984D02*
X13851848Y-11925984D01*
X13851848Y-11925984D02*
X13832801Y-11916460D01*
X13832801Y-11916460D02*
X13823277Y-11897412D01*
X13823277Y-11897412D02*
X13823277Y-11878365D01*
X13823277Y-11878365D02*
X13832801Y-11859317D01*
X13832801Y-11859317D02*
X13851848Y-11849793D01*
X13851848Y-11849793D02*
X13899467Y-11849793D01*
X13899467Y-11849793D02*
X13918515Y-11840269D01*
X14013753Y-11792650D02*
X14013753Y-11992650D01*
X14013753Y-11802174D02*
X14032801Y-11792650D01*
X14032801Y-11792650D02*
X14070896Y-11792650D01*
X14070896Y-11792650D02*
X14089943Y-11802174D01*
X14089943Y-11802174D02*
X14099467Y-11811698D01*
X14099467Y-11811698D02*
X14108991Y-11830746D01*
X14108991Y-11830746D02*
X14108991Y-11887888D01*
X14108991Y-11887888D02*
X14099467Y-11906936D01*
X14099467Y-11906936D02*
X14089943Y-11916460D01*
X14089943Y-11916460D02*
X14070896Y-11925984D01*
X14070896Y-11925984D02*
X14032801Y-11925984D01*
X14032801Y-11925984D02*
X14013753Y-11916460D01*
X14194705Y-11906936D02*
X14204229Y-11916460D01*
X14204229Y-11916460D02*
X14194705Y-11925984D01*
X14194705Y-11925984D02*
X14185182Y-11916460D01*
X14185182Y-11916460D02*
X14194705Y-11906936D01*
X14194705Y-11906936D02*
X14194705Y-11925984D01*
X14194705Y-11802174D02*
X14204229Y-11811698D01*
X14204229Y-11811698D02*
X14194705Y-11821222D01*
X14194705Y-11821222D02*
X14185182Y-11811698D01*
X14185182Y-11811698D02*
X14194705Y-11802174D01*
X14194705Y-11802174D02*
X14194705Y-11821222D01*
D12*
X12435500Y-12191000D02*
X12562500Y-12318000D01*
X12562500Y-12191000D02*
X12435500Y-12318000D01*
D11*
X12928039Y-12345984D02*
X12813753Y-12345984D01*
X12870896Y-12345984D02*
X12870896Y-12145984D01*
X12870896Y-12145984D02*
X12851848Y-12174555D01*
X12851848Y-12174555D02*
X12832801Y-12193603D01*
X12832801Y-12193603D02*
X12813753Y-12203127D01*
X13013753Y-12326936D02*
X13023277Y-12336460D01*
X13023277Y-12336460D02*
X13013753Y-12345984D01*
X13013753Y-12345984D02*
X13004229Y-12336460D01*
X13004229Y-12336460D02*
X13013753Y-12326936D01*
X13013753Y-12326936D02*
X13013753Y-12345984D01*
X13099467Y-12165031D02*
X13108991Y-12155508D01*
X13108991Y-12155508D02*
X13128039Y-12145984D01*
X13128039Y-12145984D02*
X13175658Y-12145984D01*
X13175658Y-12145984D02*
X13194705Y-12155508D01*
X13194705Y-12155508D02*
X13204229Y-12165031D01*
X13204229Y-12165031D02*
X13213753Y-12184079D01*
X13213753Y-12184079D02*
X13213753Y-12203127D01*
X13213753Y-12203127D02*
X13204229Y-12231698D01*
X13204229Y-12231698D02*
X13089943Y-12345984D01*
X13089943Y-12345984D02*
X13213753Y-12345984D01*
X13280420Y-12145984D02*
X13413753Y-12145984D01*
X13413753Y-12145984D02*
X13328039Y-12345984D01*
X13528039Y-12145984D02*
X13547086Y-12145984D01*
X13547086Y-12145984D02*
X13566134Y-12155508D01*
X13566134Y-12155508D02*
X13575658Y-12165031D01*
X13575658Y-12165031D02*
X13585182Y-12184079D01*
X13585182Y-12184079D02*
X13594705Y-12222174D01*
X13594705Y-12222174D02*
X13594705Y-12269793D01*
X13594705Y-12269793D02*
X13585182Y-12307888D01*
X13585182Y-12307888D02*
X13575658Y-12326936D01*
X13575658Y-12326936D02*
X13566134Y-12336460D01*
X13566134Y-12336460D02*
X13547086Y-12345984D01*
X13547086Y-12345984D02*
X13528039Y-12345984D01*
X13528039Y-12345984D02*
X13508991Y-12336460D01*
X13508991Y-12336460D02*
X13499467Y-12326936D01*
X13499467Y-12326936D02*
X13489943Y-12307888D01*
X13489943Y-12307888D02*
X13480420Y-12269793D01*
X13480420Y-12269793D02*
X13480420Y-12222174D01*
X13480420Y-12222174D02*
X13489943Y-12184079D01*
X13489943Y-12184079D02*
X13499467Y-12165031D01*
X13499467Y-12165031D02*
X13508991Y-12155508D01*
X13508991Y-12155508D02*
X13528039Y-12145984D01*
X13680420Y-12345984D02*
X13680420Y-12212650D01*
X13680420Y-12231698D02*
X13689943Y-12222174D01*
X13689943Y-12222174D02*
X13708991Y-12212650D01*
X13708991Y-12212650D02*
X13737563Y-12212650D01*
X13737563Y-12212650D02*
X13756610Y-12222174D01*
X13756610Y-12222174D02*
X13766134Y-12241222D01*
X13766134Y-12241222D02*
X13766134Y-12345984D01*
X13766134Y-12241222D02*
X13775658Y-12222174D01*
X13775658Y-12222174D02*
X13794705Y-12212650D01*
X13794705Y-12212650D02*
X13823277Y-12212650D01*
X13823277Y-12212650D02*
X13842324Y-12222174D01*
X13842324Y-12222174D02*
X13851848Y-12241222D01*
X13851848Y-12241222D02*
X13851848Y-12345984D01*
X13947086Y-12345984D02*
X13947086Y-12212650D01*
X13947086Y-12231698D02*
X13956610Y-12222174D01*
X13956610Y-12222174D02*
X13975658Y-12212650D01*
X13975658Y-12212650D02*
X14004229Y-12212650D01*
X14004229Y-12212650D02*
X14023277Y-12222174D01*
X14023277Y-12222174D02*
X14032801Y-12241222D01*
X14032801Y-12241222D02*
X14032801Y-12345984D01*
X14032801Y-12241222D02*
X14042324Y-12222174D01*
X14042324Y-12222174D02*
X14061372Y-12212650D01*
X14061372Y-12212650D02*
X14089943Y-12212650D01*
X14089943Y-12212650D02*
X14108991Y-12222174D01*
X14108991Y-12222174D02*
X14118515Y-12241222D01*
X14118515Y-12241222D02*
X14118515Y-12345984D01*
X14508991Y-12136460D02*
X14337563Y-12393603D01*
X14766134Y-12145984D02*
X14785182Y-12145984D01*
X14785182Y-12145984D02*
X14804229Y-12155508D01*
X14804229Y-12155508D02*
X14813753Y-12165031D01*
X14813753Y-12165031D02*
X14823277Y-12184079D01*
X14823277Y-12184079D02*
X14832801Y-12222174D01*
X14832801Y-12222174D02*
X14832801Y-12269793D01*
X14832801Y-12269793D02*
X14823277Y-12307888D01*
X14823277Y-12307888D02*
X14813753Y-12326936D01*
X14813753Y-12326936D02*
X14804229Y-12336460D01*
X14804229Y-12336460D02*
X14785182Y-12345984D01*
X14785182Y-12345984D02*
X14766134Y-12345984D01*
X14766134Y-12345984D02*
X14747086Y-12336460D01*
X14747086Y-12336460D02*
X14737563Y-12326936D01*
X14737563Y-12326936D02*
X14728039Y-12307888D01*
X14728039Y-12307888D02*
X14718515Y-12269793D01*
X14718515Y-12269793D02*
X14718515Y-12222174D01*
X14718515Y-12222174D02*
X14728039Y-12184079D01*
X14728039Y-12184079D02*
X14737563Y-12165031D01*
X14737563Y-12165031D02*
X14747086Y-12155508D01*
X14747086Y-12155508D02*
X14766134Y-12145984D01*
X14918515Y-12326936D02*
X14928039Y-12336460D01*
X14928039Y-12336460D02*
X14918515Y-12345984D01*
X14918515Y-12345984D02*
X14908991Y-12336460D01*
X14908991Y-12336460D02*
X14918515Y-12326936D01*
X14918515Y-12326936D02*
X14918515Y-12345984D01*
X15051848Y-12145984D02*
X15070896Y-12145984D01*
X15070896Y-12145984D02*
X15089944Y-12155508D01*
X15089944Y-12155508D02*
X15099467Y-12165031D01*
X15099467Y-12165031D02*
X15108991Y-12184079D01*
X15108991Y-12184079D02*
X15118515Y-12222174D01*
X15118515Y-12222174D02*
X15118515Y-12269793D01*
X15118515Y-12269793D02*
X15108991Y-12307888D01*
X15108991Y-12307888D02*
X15099467Y-12326936D01*
X15099467Y-12326936D02*
X15089944Y-12336460D01*
X15089944Y-12336460D02*
X15070896Y-12345984D01*
X15070896Y-12345984D02*
X15051848Y-12345984D01*
X15051848Y-12345984D02*
X15032801Y-12336460D01*
X15032801Y-12336460D02*
X15023277Y-12326936D01*
X15023277Y-12326936D02*
X15013753Y-12307888D01*
X15013753Y-12307888D02*
X15004229Y-12269793D01*
X15004229Y-12269793D02*
X15004229Y-12222174D01*
X15004229Y-12222174D02*
X15013753Y-12184079D01*
X15013753Y-12184079D02*
X15023277Y-12165031D01*
X15023277Y-12165031D02*
X15032801Y-12155508D01*
X15032801Y-12155508D02*
X15051848Y-12145984D01*
X15299467Y-12145984D02*
X15204229Y-12145984D01*
X15204229Y-12145984D02*
X15194706Y-12241222D01*
X15194706Y-12241222D02*
X15204229Y-12231698D01*
X15204229Y-12231698D02*
X15223277Y-12222174D01*
X15223277Y-12222174D02*
X15270896Y-12222174D01*
X15270896Y-12222174D02*
X15289944Y-12231698D01*
X15289944Y-12231698D02*
X15299467Y-12241222D01*
X15299467Y-12241222D02*
X15308991Y-12260269D01*
X15308991Y-12260269D02*
X15308991Y-12307888D01*
X15308991Y-12307888D02*
X15299467Y-12326936D01*
X15299467Y-12326936D02*
X15289944Y-12336460D01*
X15289944Y-12336460D02*
X15270896Y-12345984D01*
X15270896Y-12345984D02*
X15223277Y-12345984D01*
X15223277Y-12345984D02*
X15204229Y-12336460D01*
X15204229Y-12336460D02*
X15194706Y-12326936D01*
X15432801Y-12145984D02*
X15451848Y-12145984D01*
X15451848Y-12145984D02*
X15470896Y-12155508D01*
X15470896Y-12155508D02*
X15480420Y-12165031D01*
X15480420Y-12165031D02*
X15489944Y-12184079D01*
X15489944Y-12184079D02*
X15499467Y-12222174D01*
X15499467Y-12222174D02*
X15499467Y-12269793D01*
X15499467Y-12269793D02*
X15489944Y-12307888D01*
X15489944Y-12307888D02*
X15480420Y-12326936D01*
X15480420Y-12326936D02*
X15470896Y-12336460D01*
X15470896Y-12336460D02*
X15451848Y-12345984D01*
X15451848Y-12345984D02*
X15432801Y-12345984D01*
X15432801Y-12345984D02*
X15413753Y-12336460D01*
X15413753Y-12336460D02*
X15404229Y-12326936D01*
X15404229Y-12326936D02*
X15394706Y-12307888D01*
X15394706Y-12307888D02*
X15385182Y-12269793D01*
X15385182Y-12269793D02*
X15385182Y-12222174D01*
X15385182Y-12222174D02*
X15394706Y-12184079D01*
X15394706Y-12184079D02*
X15404229Y-12165031D01*
X15404229Y-12165031D02*
X15413753Y-12155508D01*
X15413753Y-12155508D02*
X15432801Y-12145984D01*
X15623277Y-12145984D02*
X15642325Y-12145984D01*
X15642325Y-12145984D02*
X15661372Y-12155508D01*
X15661372Y-12155508D02*
X15670896Y-12165031D01*
X15670896Y-12165031D02*
X15680420Y-12184079D01*
X15680420Y-12184079D02*
X15689944Y-12222174D01*
X15689944Y-12222174D02*
X15689944Y-12269793D01*
X15689944Y-12269793D02*
X15680420Y-12307888D01*
X15680420Y-12307888D02*
X15670896Y-12326936D01*
X15670896Y-12326936D02*
X15661372Y-12336460D01*
X15661372Y-12336460D02*
X15642325Y-12345984D01*
X15642325Y-12345984D02*
X15623277Y-12345984D01*
X15623277Y-12345984D02*
X15604229Y-12336460D01*
X15604229Y-12336460D02*
X15594706Y-12326936D01*
X15594706Y-12326936D02*
X15585182Y-12307888D01*
X15585182Y-12307888D02*
X15575658Y-12269793D01*
X15575658Y-12269793D02*
X15575658Y-12222174D01*
X15575658Y-12222174D02*
X15585182Y-12184079D01*
X15585182Y-12184079D02*
X15594706Y-12165031D01*
X15594706Y-12165031D02*
X15604229Y-12155508D01*
X15604229Y-12155508D02*
X15623277Y-12145984D01*
X15766134Y-12145984D02*
X15766134Y-12184079D01*
X15842325Y-12145984D02*
X15842325Y-12184079D01*
X16137563Y-12422174D02*
X16128039Y-12412650D01*
X16128039Y-12412650D02*
X16108991Y-12384079D01*
X16108991Y-12384079D02*
X16099468Y-12365031D01*
X16099468Y-12365031D02*
X16089944Y-12336460D01*
X16089944Y-12336460D02*
X16080420Y-12288841D01*
X16080420Y-12288841D02*
X16080420Y-12250746D01*
X16080420Y-12250746D02*
X16089944Y-12203127D01*
X16089944Y-12203127D02*
X16099468Y-12174555D01*
X16099468Y-12174555D02*
X16108991Y-12155508D01*
X16108991Y-12155508D02*
X16128039Y-12126936D01*
X16128039Y-12126936D02*
X16137563Y-12117412D01*
X16299468Y-12212650D02*
X16299468Y-12345984D01*
X16251848Y-12136460D02*
X16204229Y-12279317D01*
X16204229Y-12279317D02*
X16328039Y-12279317D01*
X16556610Y-12345984D02*
X16556610Y-12145984D01*
X16642325Y-12345984D02*
X16642325Y-12241222D01*
X16642325Y-12241222D02*
X16632801Y-12222174D01*
X16632801Y-12222174D02*
X16613753Y-12212650D01*
X16613753Y-12212650D02*
X16585182Y-12212650D01*
X16585182Y-12212650D02*
X16566134Y-12222174D01*
X16566134Y-12222174D02*
X16556610Y-12231698D01*
X16766134Y-12345984D02*
X16747087Y-12336460D01*
X16747087Y-12336460D02*
X16737563Y-12326936D01*
X16737563Y-12326936D02*
X16728039Y-12307888D01*
X16728039Y-12307888D02*
X16728039Y-12250746D01*
X16728039Y-12250746D02*
X16737563Y-12231698D01*
X16737563Y-12231698D02*
X16747087Y-12222174D01*
X16747087Y-12222174D02*
X16766134Y-12212650D01*
X16766134Y-12212650D02*
X16794706Y-12212650D01*
X16794706Y-12212650D02*
X16813753Y-12222174D01*
X16813753Y-12222174D02*
X16823277Y-12231698D01*
X16823277Y-12231698D02*
X16832801Y-12250746D01*
X16832801Y-12250746D02*
X16832801Y-12307888D01*
X16832801Y-12307888D02*
X16823277Y-12326936D01*
X16823277Y-12326936D02*
X16813753Y-12336460D01*
X16813753Y-12336460D02*
X16794706Y-12345984D01*
X16794706Y-12345984D02*
X16766134Y-12345984D01*
X16947087Y-12345984D02*
X16928039Y-12336460D01*
X16928039Y-12336460D02*
X16918515Y-12317412D01*
X16918515Y-12317412D02*
X16918515Y-12145984D01*
X17099468Y-12336460D02*
X17080420Y-12345984D01*
X17080420Y-12345984D02*
X17042325Y-12345984D01*
X17042325Y-12345984D02*
X17023277Y-12336460D01*
X17023277Y-12336460D02*
X17013753Y-12317412D01*
X17013753Y-12317412D02*
X17013753Y-12241222D01*
X17013753Y-12241222D02*
X17023277Y-12222174D01*
X17023277Y-12222174D02*
X17042325Y-12212650D01*
X17042325Y-12212650D02*
X17080420Y-12212650D01*
X17080420Y-12212650D02*
X17099468Y-12222174D01*
X17099468Y-12222174D02*
X17108992Y-12241222D01*
X17108992Y-12241222D02*
X17108992Y-12260269D01*
X17108992Y-12260269D02*
X17013753Y-12279317D01*
X17185182Y-12336460D02*
X17204230Y-12345984D01*
X17204230Y-12345984D02*
X17242325Y-12345984D01*
X17242325Y-12345984D02*
X17261373Y-12336460D01*
X17261373Y-12336460D02*
X17270896Y-12317412D01*
X17270896Y-12317412D02*
X17270896Y-12307888D01*
X17270896Y-12307888D02*
X17261373Y-12288841D01*
X17261373Y-12288841D02*
X17242325Y-12279317D01*
X17242325Y-12279317D02*
X17213753Y-12279317D01*
X17213753Y-12279317D02*
X17194706Y-12269793D01*
X17194706Y-12269793D02*
X17185182Y-12250746D01*
X17185182Y-12250746D02*
X17185182Y-12241222D01*
X17185182Y-12241222D02*
X17194706Y-12222174D01*
X17194706Y-12222174D02*
X17213753Y-12212650D01*
X17213753Y-12212650D02*
X17242325Y-12212650D01*
X17242325Y-12212650D02*
X17261373Y-12222174D01*
X17337563Y-12422174D02*
X17347087Y-12412650D01*
X17347087Y-12412650D02*
X17366134Y-12384079D01*
X17366134Y-12384079D02*
X17375658Y-12365031D01*
X17375658Y-12365031D02*
X17385182Y-12336460D01*
X17385182Y-12336460D02*
X17394706Y-12288841D01*
X17394706Y-12288841D02*
X17394706Y-12250746D01*
X17394706Y-12250746D02*
X17385182Y-12203127D01*
X17385182Y-12203127D02*
X17375658Y-12174555D01*
X17375658Y-12174555D02*
X17366134Y-12155508D01*
X17366134Y-12155508D02*
X17347087Y-12126936D01*
X17347087Y-12126936D02*
X17337563Y-12117412D01*
X17699468Y-12422174D02*
X17689944Y-12412650D01*
X17689944Y-12412650D02*
X17670896Y-12384079D01*
X17670896Y-12384079D02*
X17661373Y-12365031D01*
X17661373Y-12365031D02*
X17651849Y-12336460D01*
X17651849Y-12336460D02*
X17642325Y-12288841D01*
X17642325Y-12288841D02*
X17642325Y-12250746D01*
X17642325Y-12250746D02*
X17651849Y-12203127D01*
X17651849Y-12203127D02*
X17661373Y-12174555D01*
X17661373Y-12174555D02*
X17670896Y-12155508D01*
X17670896Y-12155508D02*
X17689944Y-12126936D01*
X17689944Y-12126936D02*
X17699468Y-12117412D01*
X17775658Y-12212650D02*
X17775658Y-12345984D01*
X17775658Y-12231698D02*
X17785182Y-12222174D01*
X17785182Y-12222174D02*
X17804230Y-12212650D01*
X17804230Y-12212650D02*
X17832801Y-12212650D01*
X17832801Y-12212650D02*
X17851849Y-12222174D01*
X17851849Y-12222174D02*
X17861373Y-12241222D01*
X17861373Y-12241222D02*
X17861373Y-12345984D01*
X17985182Y-12345984D02*
X17966134Y-12336460D01*
X17966134Y-12336460D02*
X17956611Y-12326936D01*
X17956611Y-12326936D02*
X17947087Y-12307888D01*
X17947087Y-12307888D02*
X17947087Y-12250746D01*
X17947087Y-12250746D02*
X17956611Y-12231698D01*
X17956611Y-12231698D02*
X17966134Y-12222174D01*
X17966134Y-12222174D02*
X17985182Y-12212650D01*
X17985182Y-12212650D02*
X18013754Y-12212650D01*
X18013754Y-12212650D02*
X18032801Y-12222174D01*
X18032801Y-12222174D02*
X18042325Y-12231698D01*
X18042325Y-12231698D02*
X18051849Y-12250746D01*
X18051849Y-12250746D02*
X18051849Y-12307888D01*
X18051849Y-12307888D02*
X18042325Y-12326936D01*
X18042325Y-12326936D02*
X18032801Y-12336460D01*
X18032801Y-12336460D02*
X18013754Y-12345984D01*
X18013754Y-12345984D02*
X17985182Y-12345984D01*
X18108992Y-12212650D02*
X18185182Y-12212650D01*
X18137563Y-12145984D02*
X18137563Y-12317412D01*
X18137563Y-12317412D02*
X18147087Y-12336460D01*
X18147087Y-12336460D02*
X18166134Y-12345984D01*
X18166134Y-12345984D02*
X18185182Y-12345984D01*
X18404230Y-12212650D02*
X18404230Y-12412650D01*
X18404230Y-12222174D02*
X18423277Y-12212650D01*
X18423277Y-12212650D02*
X18461373Y-12212650D01*
X18461373Y-12212650D02*
X18480420Y-12222174D01*
X18480420Y-12222174D02*
X18489944Y-12231698D01*
X18489944Y-12231698D02*
X18499468Y-12250746D01*
X18499468Y-12250746D02*
X18499468Y-12307888D01*
X18499468Y-12307888D02*
X18489944Y-12326936D01*
X18489944Y-12326936D02*
X18480420Y-12336460D01*
X18480420Y-12336460D02*
X18461373Y-12345984D01*
X18461373Y-12345984D02*
X18423277Y-12345984D01*
X18423277Y-12345984D02*
X18404230Y-12336460D01*
X18613754Y-12345984D02*
X18594706Y-12336460D01*
X18594706Y-12336460D02*
X18585182Y-12317412D01*
X18585182Y-12317412D02*
X18585182Y-12145984D01*
X18775658Y-12345984D02*
X18775658Y-12241222D01*
X18775658Y-12241222D02*
X18766135Y-12222174D01*
X18766135Y-12222174D02*
X18747087Y-12212650D01*
X18747087Y-12212650D02*
X18708992Y-12212650D01*
X18708992Y-12212650D02*
X18689944Y-12222174D01*
X18775658Y-12336460D02*
X18756611Y-12345984D01*
X18756611Y-12345984D02*
X18708992Y-12345984D01*
X18708992Y-12345984D02*
X18689944Y-12336460D01*
X18689944Y-12336460D02*
X18680420Y-12317412D01*
X18680420Y-12317412D02*
X18680420Y-12298365D01*
X18680420Y-12298365D02*
X18689944Y-12279317D01*
X18689944Y-12279317D02*
X18708992Y-12269793D01*
X18708992Y-12269793D02*
X18756611Y-12269793D01*
X18756611Y-12269793D02*
X18775658Y-12260269D01*
X18842325Y-12212650D02*
X18918515Y-12212650D01*
X18870896Y-12145984D02*
X18870896Y-12317412D01*
X18870896Y-12317412D02*
X18880420Y-12336460D01*
X18880420Y-12336460D02*
X18899468Y-12345984D01*
X18899468Y-12345984D02*
X18918515Y-12345984D01*
X19061373Y-12336460D02*
X19042325Y-12345984D01*
X19042325Y-12345984D02*
X19004230Y-12345984D01*
X19004230Y-12345984D02*
X18985182Y-12336460D01*
X18985182Y-12336460D02*
X18975658Y-12317412D01*
X18975658Y-12317412D02*
X18975658Y-12241222D01*
X18975658Y-12241222D02*
X18985182Y-12222174D01*
X18985182Y-12222174D02*
X19004230Y-12212650D01*
X19004230Y-12212650D02*
X19042325Y-12212650D01*
X19042325Y-12212650D02*
X19061373Y-12222174D01*
X19061373Y-12222174D02*
X19070896Y-12241222D01*
X19070896Y-12241222D02*
X19070896Y-12260269D01*
X19070896Y-12260269D02*
X18975658Y-12279317D01*
X19242325Y-12345984D02*
X19242325Y-12145984D01*
X19242325Y-12336460D02*
X19223277Y-12345984D01*
X19223277Y-12345984D02*
X19185182Y-12345984D01*
X19185182Y-12345984D02*
X19166135Y-12336460D01*
X19166135Y-12336460D02*
X19156611Y-12326936D01*
X19156611Y-12326936D02*
X19147087Y-12307888D01*
X19147087Y-12307888D02*
X19147087Y-12250746D01*
X19147087Y-12250746D02*
X19156611Y-12231698D01*
X19156611Y-12231698D02*
X19166135Y-12222174D01*
X19166135Y-12222174D02*
X19185182Y-12212650D01*
X19185182Y-12212650D02*
X19223277Y-12212650D01*
X19223277Y-12212650D02*
X19242325Y-12222174D01*
X19318516Y-12422174D02*
X19328039Y-12412650D01*
X19328039Y-12412650D02*
X19347087Y-12384079D01*
X19347087Y-12384079D02*
X19356611Y-12365031D01*
X19356611Y-12365031D02*
X19366135Y-12336460D01*
X19366135Y-12336460D02*
X19375658Y-12288841D01*
X19375658Y-12288841D02*
X19375658Y-12250746D01*
X19375658Y-12250746D02*
X19366135Y-12203127D01*
X19366135Y-12203127D02*
X19356611Y-12174555D01*
X19356611Y-12174555D02*
X19347087Y-12155508D01*
X19347087Y-12155508D02*
X19328039Y-12126936D01*
X19328039Y-12126936D02*
X19318516Y-12117412D01*
M02*
