G04 #@! TF.GenerationSoftware,KiCad,Pcbnew,10.0.4*
G04 #@! TF.CreationDate,2026-07-23T08:16:46+10:00*
G04 #@! TF.ProjectId,Low_Current_Driver,4c6f775f-4375-4727-9265-6e745f447269,0.1*
G04 #@! TF.SameCoordinates,Original*
G04 #@! TF.FileFunction,Copper,L2,Inr*
G04 #@! TF.FilePolarity,Positive*
%FSLAX46Y46*%
G04 Gerber Fmt 4.6, Leading zero omitted, Abs format (unit mm)*
G04 Created by KiCad (PCBNEW 10.0.4) date 2026-07-23 08:16:46*
%MOMM*%
%LPD*%
G01*
G04 APERTURE LIST*
G04 Aperture macros list*
%AMRoundRect*
0 Rectangle with rounded corners*
0 $1 Rounding radius*
0 $2 $3 $4 $5 $6 $7 $8 $9 X,Y pos of 4 corners*
0 Add a 4 corners polygon primitive as box body*
4,1,4,$2,$3,$4,$5,$6,$7,$8,$9,$2,$3,0*
0 Add four circle primitives for the rounded corners*
1,1,$1+$1,$2,$3*
1,1,$1+$1,$4,$5*
1,1,$1+$1,$6,$7*
1,1,$1+$1,$8,$9*
0 Add four rect primitives between the rounded corners*
20,1,$1+$1,$2,$3,$4,$5,0*
20,1,$1+$1,$4,$5,$6,$7,0*
20,1,$1+$1,$6,$7,$8,$9,0*
20,1,$1+$1,$8,$9,$2,$3,0*%
G04 Aperture macros list end*
G04 #@! TA.AperFunction,ComponentPad*
%ADD10C,3.800000*%
G04 #@! TD*
G04 #@! TA.AperFunction,ComponentPad*
%ADD11RoundRect,0.250000X-1.050000X1.050000X-1.050000X-1.050000X1.050000X-1.050000X1.050000X1.050000X0*%
G04 #@! TD*
G04 #@! TA.AperFunction,ComponentPad*
%ADD12C,2.600000*%
G04 #@! TD*
G04 #@! TA.AperFunction,ComponentPad*
%ADD13RoundRect,0.250001X0.759999X-0.499999X0.759999X0.499999X-0.759999X0.499999X-0.759999X-0.499999X0*%
G04 #@! TD*
G04 #@! TA.AperFunction,ComponentPad*
%ADD14O,2.020000X1.500000*%
G04 #@! TD*
G04 #@! TA.AperFunction,ComponentPad*
%ADD15R,2.850000X2.850000*%
G04 #@! TD*
G04 #@! TA.AperFunction,ComponentPad*
%ADD16C,2.850000*%
G04 #@! TD*
G04 #@! TA.AperFunction,ComponentPad*
%ADD17R,1.600000X1.600000*%
G04 #@! TD*
G04 #@! TA.AperFunction,ComponentPad*
%ADD18O,1.600000X1.600000*%
G04 #@! TD*
G04 #@! TA.AperFunction,ViaPad*
%ADD19C,0.600000*%
G04 #@! TD*
G04 #@! TA.AperFunction,ViaPad*
%ADD20C,0.914400*%
G04 #@! TD*
G04 APERTURE END LIST*
D10*
X129900000Y-112620000D03*
D11*
X131977500Y-80000000D03*
D12*
X131977500Y-85080000D03*
X131977500Y-90160000D03*
X131977500Y-95240000D03*
D10*
X248150000Y-67120000D03*
X129900000Y-67120000D03*
D13*
X247860000Y-93120000D03*
D14*
X247860000Y-90120000D03*
D15*
X146200000Y-91670000D03*
D16*
X156200000Y-90170000D03*
X146200000Y-83670000D03*
X156200000Y-85170000D03*
D13*
X247860000Y-105120000D03*
D14*
X247860000Y-102120000D03*
D17*
X182010000Y-108200000D03*
D18*
X182010000Y-105660000D03*
X182010000Y-103120000D03*
X182010000Y-100580000D03*
X182010000Y-98040000D03*
X182010000Y-95500000D03*
X182010000Y-92960000D03*
X182010000Y-90420000D03*
X182010000Y-87880000D03*
X182010000Y-85340000D03*
X182010000Y-82800000D03*
X182010000Y-80260000D03*
X182010000Y-77720000D03*
X182010000Y-75180000D03*
X182010000Y-72640000D03*
X166770000Y-72640000D03*
X166770000Y-75180000D03*
X166770000Y-77720000D03*
X166770000Y-80260000D03*
X166770000Y-82800000D03*
X166770000Y-85340000D03*
X166770000Y-87880000D03*
X166770000Y-90420000D03*
X166770000Y-92960000D03*
X166770000Y-95500000D03*
X166770000Y-98040000D03*
X166770000Y-100580000D03*
X166770000Y-103120000D03*
X166770000Y-105660000D03*
X166770000Y-108200000D03*
D10*
X248150000Y-112620000D03*
D19*
X185400000Y-94120000D03*
X186900000Y-97870000D03*
D20*
X197650000Y-109870000D03*
X196535000Y-70547500D03*
X196400000Y-90120000D03*
X195900000Y-100120000D03*
X195900000Y-109870000D03*
X187400000Y-109870000D03*
X193900000Y-100120000D03*
X194150000Y-109870000D03*
X188900000Y-109870000D03*
X190650000Y-109870000D03*
X192400000Y-109870000D03*
X199150000Y-109870000D03*
X200650000Y-86370000D03*
X200650000Y-92734200D03*
X218400000Y-100120000D03*
X200650000Y-82370000D03*
X217900000Y-88370000D03*
D19*
X230000000Y-102220000D03*
X220000000Y-91820000D03*
X206400000Y-100220000D03*
X238400000Y-83820000D03*
X240000000Y-94420000D03*
X191400000Y-95020000D03*
D20*
X135650000Y-85120000D03*
D19*
X240800000Y-103220000D03*
D20*
X205382500Y-78370000D03*
D19*
X240600000Y-91220000D03*
X214800000Y-87620000D03*
X216400000Y-79820000D03*
X215400000Y-90220000D03*
X215400000Y-99820000D03*
X215400000Y-94820000D03*
X206000000Y-93220000D03*
D20*
X191212500Y-76120000D03*
D19*
X189600000Y-85420000D03*
X203900000Y-89120000D03*
X189650000Y-92620000D03*
D20*
X135650000Y-90120000D03*
D19*
X206400000Y-98620000D03*
X198400000Y-95020000D03*
X203900000Y-91120000D03*
X224800000Y-86620000D03*
X199600000Y-84620000D03*
X189600000Y-90620000D03*
X206400000Y-105220000D03*
X229400000Y-90420000D03*
X189650000Y-86620000D03*
X206000000Y-88420000D03*
X225000000Y-98420000D03*
D20*
X236650000Y-80870000D03*
X213400000Y-78120000D03*
X213400000Y-89870000D03*
X234900000Y-94370000D03*
X207900000Y-93370000D03*
X208150000Y-105370000D03*
X226400000Y-88870000D03*
X226650000Y-100870000D03*
D19*
X234400000Y-88370000D03*
X236400000Y-90370000D03*
X234600000Y-100390000D03*
X236600000Y-102390000D03*
X184900000Y-73370000D03*
X188433001Y-88586999D03*
G04 #@! TA.AperFunction,Conductor*
G36*
X253142539Y-63340185D02*
G01*
X253188294Y-63392989D01*
X253199500Y-63444500D01*
X253199500Y-115795500D01*
X253179815Y-115862539D01*
X253127011Y-115908294D01*
X253075500Y-115919500D01*
X125974500Y-115919500D01*
X125907461Y-115899815D01*
X125861706Y-115847011D01*
X125850500Y-115795500D01*
X125850500Y-109789995D01*
X186792300Y-109789995D01*
X186792300Y-109950005D01*
X186833714Y-110104564D01*
X186833715Y-110104565D01*
X186833715Y-110104566D01*
X186913716Y-110243133D01*
X186913718Y-110243136D01*
X186913719Y-110243137D01*
X187026863Y-110356281D01*
X187165436Y-110436286D01*
X187319995Y-110477700D01*
X187319997Y-110477700D01*
X187480002Y-110477700D01*
X187480005Y-110477700D01*
X187634564Y-110436286D01*
X187773137Y-110356281D01*
X187886281Y-110243137D01*
X187966286Y-110104564D01*
X188007700Y-109950005D01*
X188007700Y-109789995D01*
X188292300Y-109789995D01*
X188292300Y-109950005D01*
X188333714Y-110104564D01*
X188333715Y-110104565D01*
X188333715Y-110104566D01*
X188413716Y-110243133D01*
X188413718Y-110243136D01*
X188413719Y-110243137D01*
X188526863Y-110356281D01*
X188665436Y-110436286D01*
X188819995Y-110477700D01*
X188819997Y-110477700D01*
X188980002Y-110477700D01*
X188980005Y-110477700D01*
X189134564Y-110436286D01*
X189273137Y-110356281D01*
X189386281Y-110243137D01*
X189466286Y-110104564D01*
X189507700Y-109950005D01*
X189507700Y-109789995D01*
X190042300Y-109789995D01*
X190042300Y-109950005D01*
X190083714Y-110104564D01*
X190083715Y-110104565D01*
X190083715Y-110104566D01*
X190163716Y-110243133D01*
X190163718Y-110243136D01*
X190163719Y-110243137D01*
X190276863Y-110356281D01*
X190415436Y-110436286D01*
X190569995Y-110477700D01*
X190569997Y-110477700D01*
X190730002Y-110477700D01*
X190730005Y-110477700D01*
X190884564Y-110436286D01*
X191023137Y-110356281D01*
X191136281Y-110243137D01*
X191216286Y-110104564D01*
X191257700Y-109950005D01*
X191257700Y-109789995D01*
X191792300Y-109789995D01*
X191792300Y-109950005D01*
X191833714Y-110104564D01*
X191833715Y-110104565D01*
X191833715Y-110104566D01*
X191913716Y-110243133D01*
X191913718Y-110243136D01*
X191913719Y-110243137D01*
X192026863Y-110356281D01*
X192165436Y-110436286D01*
X192319995Y-110477700D01*
X192319997Y-110477700D01*
X192480002Y-110477700D01*
X192480005Y-110477700D01*
X192634564Y-110436286D01*
X192773137Y-110356281D01*
X192886281Y-110243137D01*
X192966286Y-110104564D01*
X193007700Y-109950005D01*
X193007700Y-109789995D01*
X193542300Y-109789995D01*
X193542300Y-109950005D01*
X193583714Y-110104564D01*
X193583715Y-110104565D01*
X193583715Y-110104566D01*
X193663716Y-110243133D01*
X193663718Y-110243136D01*
X193663719Y-110243137D01*
X193776863Y-110356281D01*
X193915436Y-110436286D01*
X194069995Y-110477700D01*
X194069997Y-110477700D01*
X194230002Y-110477700D01*
X194230005Y-110477700D01*
X194384564Y-110436286D01*
X194523137Y-110356281D01*
X194636281Y-110243137D01*
X194716286Y-110104564D01*
X194757700Y-109950005D01*
X194757700Y-109789995D01*
X195292300Y-109789995D01*
X195292300Y-109950005D01*
X195333714Y-110104564D01*
X195333715Y-110104565D01*
X195333715Y-110104566D01*
X195413716Y-110243133D01*
X195413718Y-110243136D01*
X195413719Y-110243137D01*
X195526863Y-110356281D01*
X195665436Y-110436286D01*
X195819995Y-110477700D01*
X195819997Y-110477700D01*
X195980002Y-110477700D01*
X195980005Y-110477700D01*
X196134564Y-110436286D01*
X196273137Y-110356281D01*
X196386281Y-110243137D01*
X196466286Y-110104564D01*
X196507700Y-109950005D01*
X196507700Y-109789995D01*
X197042300Y-109789995D01*
X197042300Y-109950005D01*
X197083714Y-110104564D01*
X197083715Y-110104565D01*
X197083715Y-110104566D01*
X197163716Y-110243133D01*
X197163718Y-110243136D01*
X197163719Y-110243137D01*
X197276863Y-110356281D01*
X197415436Y-110436286D01*
X197569995Y-110477700D01*
X197569997Y-110477700D01*
X197730002Y-110477700D01*
X197730005Y-110477700D01*
X197884564Y-110436286D01*
X198023137Y-110356281D01*
X198136281Y-110243137D01*
X198216286Y-110104564D01*
X198257700Y-109950005D01*
X198257700Y-109789995D01*
X198542300Y-109789995D01*
X198542300Y-109950005D01*
X198583714Y-110104564D01*
X198583715Y-110104565D01*
X198583715Y-110104566D01*
X198663716Y-110243133D01*
X198663718Y-110243136D01*
X198663719Y-110243137D01*
X198776863Y-110356281D01*
X198915436Y-110436286D01*
X199069995Y-110477700D01*
X199069997Y-110477700D01*
X199230002Y-110477700D01*
X199230005Y-110477700D01*
X199384564Y-110436286D01*
X199523137Y-110356281D01*
X199636281Y-110243137D01*
X199716286Y-110104564D01*
X199757700Y-109950005D01*
X199757700Y-109789995D01*
X199716286Y-109635436D01*
X199636281Y-109496863D01*
X199523137Y-109383719D01*
X199523136Y-109383718D01*
X199523133Y-109383716D01*
X199384566Y-109303715D01*
X199384565Y-109303714D01*
X199384564Y-109303714D01*
X199230005Y-109262300D01*
X199069995Y-109262300D01*
X198915436Y-109303714D01*
X198915434Y-109303715D01*
X198915433Y-109303715D01*
X198776866Y-109383716D01*
X198776861Y-109383720D01*
X198663720Y-109496861D01*
X198663716Y-109496866D01*
X198583715Y-109635433D01*
X198583715Y-109635434D01*
X198583714Y-109635436D01*
X198542300Y-109789995D01*
X198257700Y-109789995D01*
X198216286Y-109635436D01*
X198136281Y-109496863D01*
X198023137Y-109383719D01*
X198023136Y-109383718D01*
X198023133Y-109383716D01*
X197884566Y-109303715D01*
X197884565Y-109303714D01*
X197884564Y-109303714D01*
X197730005Y-109262300D01*
X197569995Y-109262300D01*
X197415436Y-109303714D01*
X197415434Y-109303715D01*
X197415433Y-109303715D01*
X197276866Y-109383716D01*
X197276861Y-109383720D01*
X197163720Y-109496861D01*
X197163716Y-109496866D01*
X197083715Y-109635433D01*
X197083715Y-109635434D01*
X197083714Y-109635436D01*
X197042300Y-109789995D01*
X196507700Y-109789995D01*
X196466286Y-109635436D01*
X196386281Y-109496863D01*
X196273137Y-109383719D01*
X196273136Y-109383718D01*
X196273133Y-109383716D01*
X196134566Y-109303715D01*
X196134565Y-109303714D01*
X196134564Y-109303714D01*
X195980005Y-109262300D01*
X195819995Y-109262300D01*
X195665436Y-109303714D01*
X195665434Y-109303715D01*
X195665433Y-109303715D01*
X195526866Y-109383716D01*
X195526861Y-109383720D01*
X195413720Y-109496861D01*
X195413716Y-109496866D01*
X195333715Y-109635433D01*
X195333715Y-109635434D01*
X195333714Y-109635436D01*
X195292300Y-109789995D01*
X194757700Y-109789995D01*
X194716286Y-109635436D01*
X194636281Y-109496863D01*
X194523137Y-109383719D01*
X194523136Y-109383718D01*
X194523133Y-109383716D01*
X194384566Y-109303715D01*
X194384565Y-109303714D01*
X194384564Y-109303714D01*
X194230005Y-109262300D01*
X194069995Y-109262300D01*
X193915436Y-109303714D01*
X193915434Y-109303715D01*
X193915433Y-109303715D01*
X193776866Y-109383716D01*
X193776861Y-109383720D01*
X193663720Y-109496861D01*
X193663716Y-109496866D01*
X193583715Y-109635433D01*
X193583715Y-109635434D01*
X193583714Y-109635436D01*
X193542300Y-109789995D01*
X193007700Y-109789995D01*
X192966286Y-109635436D01*
X192886281Y-109496863D01*
X192773137Y-109383719D01*
X192773136Y-109383718D01*
X192773133Y-109383716D01*
X192634566Y-109303715D01*
X192634565Y-109303714D01*
X192634564Y-109303714D01*
X192480005Y-109262300D01*
X192319995Y-109262300D01*
X192165436Y-109303714D01*
X192165434Y-109303715D01*
X192165433Y-109303715D01*
X192026866Y-109383716D01*
X192026861Y-109383720D01*
X191913720Y-109496861D01*
X191913716Y-109496866D01*
X191833715Y-109635433D01*
X191833715Y-109635434D01*
X191833714Y-109635436D01*
X191792300Y-109789995D01*
X191257700Y-109789995D01*
X191216286Y-109635436D01*
X191136281Y-109496863D01*
X191023137Y-109383719D01*
X191023136Y-109383718D01*
X191023133Y-109383716D01*
X190884566Y-109303715D01*
X190884565Y-109303714D01*
X190884564Y-109303714D01*
X190730005Y-109262300D01*
X190569995Y-109262300D01*
X190415436Y-109303714D01*
X190415434Y-109303715D01*
X190415433Y-109303715D01*
X190276866Y-109383716D01*
X190276861Y-109383720D01*
X190163720Y-109496861D01*
X190163716Y-109496866D01*
X190083715Y-109635433D01*
X190083715Y-109635434D01*
X190083714Y-109635436D01*
X190042300Y-109789995D01*
X189507700Y-109789995D01*
X189466286Y-109635436D01*
X189386281Y-109496863D01*
X189273137Y-109383719D01*
X189273136Y-109383718D01*
X189273133Y-109383716D01*
X189134566Y-109303715D01*
X189134565Y-109303714D01*
X189134564Y-109303714D01*
X188980005Y-109262300D01*
X188819995Y-109262300D01*
X188665436Y-109303714D01*
X188665434Y-109303715D01*
X188665433Y-109303715D01*
X188526866Y-109383716D01*
X188526861Y-109383720D01*
X188413720Y-109496861D01*
X188413716Y-109496866D01*
X188333715Y-109635433D01*
X188333715Y-109635434D01*
X188333714Y-109635436D01*
X188292300Y-109789995D01*
X188007700Y-109789995D01*
X187966286Y-109635436D01*
X187886281Y-109496863D01*
X187773137Y-109383719D01*
X187773136Y-109383718D01*
X187773133Y-109383716D01*
X187634566Y-109303715D01*
X187634565Y-109303714D01*
X187634564Y-109303714D01*
X187480005Y-109262300D01*
X187319995Y-109262300D01*
X187165436Y-109303714D01*
X187165434Y-109303715D01*
X187165433Y-109303715D01*
X187026866Y-109383716D01*
X187026861Y-109383720D01*
X186913720Y-109496861D01*
X186913716Y-109496866D01*
X186833715Y-109635433D01*
X186833715Y-109635434D01*
X186833714Y-109635436D01*
X186792300Y-109789995D01*
X125850500Y-109789995D01*
X125850500Y-108106379D01*
X165819500Y-108106379D01*
X165819500Y-108293620D01*
X165856025Y-108477243D01*
X165856027Y-108477251D01*
X165927676Y-108650228D01*
X165927681Y-108650237D01*
X166031697Y-108805907D01*
X166031700Y-108805911D01*
X166164088Y-108938299D01*
X166164092Y-108938302D01*
X166319762Y-109042318D01*
X166319768Y-109042321D01*
X166319769Y-109042322D01*
X166492749Y-109113973D01*
X166632470Y-109141765D01*
X166676379Y-109150499D01*
X166676383Y-109150500D01*
X166676384Y-109150500D01*
X166863617Y-109150500D01*
X166863618Y-109150499D01*
X167047251Y-109113973D01*
X167220231Y-109042322D01*
X167261388Y-109014822D01*
X181059499Y-109014822D01*
X181068231Y-109058717D01*
X181068232Y-109058721D01*
X181068233Y-109058722D01*
X181101496Y-109108504D01*
X181151278Y-109141767D01*
X181151281Y-109141767D01*
X181151282Y-109141768D01*
X181195177Y-109150500D01*
X181195180Y-109150500D01*
X182824822Y-109150500D01*
X182868717Y-109141768D01*
X182868717Y-109141767D01*
X182868722Y-109141767D01*
X182918504Y-109108504D01*
X182951767Y-109058722D01*
X182960500Y-109014820D01*
X182960500Y-108032781D01*
X245014500Y-108032781D01*
X245014500Y-108207218D01*
X245048527Y-108378283D01*
X245048529Y-108378291D01*
X245115278Y-108539439D01*
X245115283Y-108539448D01*
X245212186Y-108684473D01*
X245212189Y-108684477D01*
X245335522Y-108807810D01*
X245335526Y-108807813D01*
X245480551Y-108904716D01*
X245480557Y-108904719D01*
X245480558Y-108904720D01*
X245641709Y-108971471D01*
X245812781Y-109005499D01*
X245812785Y-109005500D01*
X245812786Y-109005500D01*
X245987215Y-109005500D01*
X245987216Y-109005499D01*
X246158291Y-108971471D01*
X246319442Y-108904720D01*
X246464474Y-108807813D01*
X246587813Y-108684474D01*
X246684720Y-108539442D01*
X246751471Y-108378291D01*
X246785500Y-108207214D01*
X246785500Y-108032786D01*
X246751471Y-107861709D01*
X246684720Y-107700558D01*
X246684719Y-107700557D01*
X246684716Y-107700551D01*
X246587813Y-107555526D01*
X246587810Y-107555522D01*
X246464477Y-107432189D01*
X246464473Y-107432186D01*
X246319448Y-107335283D01*
X246319439Y-107335278D01*
X246158291Y-107268529D01*
X246158283Y-107268527D01*
X245987218Y-107234500D01*
X245987214Y-107234500D01*
X245812786Y-107234500D01*
X245812781Y-107234500D01*
X245641716Y-107268527D01*
X245641708Y-107268529D01*
X245480560Y-107335278D01*
X245480551Y-107335283D01*
X245335526Y-107432186D01*
X245335522Y-107432189D01*
X245212189Y-107555522D01*
X245212186Y-107555526D01*
X245115283Y-107700551D01*
X245115278Y-107700560D01*
X245048529Y-107861708D01*
X245048527Y-107861716D01*
X245014500Y-108032781D01*
X182960500Y-108032781D01*
X182960500Y-107385180D01*
X182960500Y-107385177D01*
X182951768Y-107341282D01*
X182951767Y-107341281D01*
X182951767Y-107341278D01*
X182918504Y-107291496D01*
X182910319Y-107286027D01*
X182868724Y-107258234D01*
X182868717Y-107258231D01*
X182824822Y-107249500D01*
X182824820Y-107249500D01*
X181195180Y-107249500D01*
X181195178Y-107249500D01*
X181151282Y-107258231D01*
X181151275Y-107258234D01*
X181101496Y-107291495D01*
X181101495Y-107291496D01*
X181068234Y-107341275D01*
X181068231Y-107341282D01*
X181059500Y-107385177D01*
X181059500Y-107385180D01*
X181059500Y-109014820D01*
X181059500Y-109014822D01*
X181059499Y-109014822D01*
X167261388Y-109014822D01*
X167375908Y-108938302D01*
X167508302Y-108805908D01*
X167612322Y-108650231D01*
X167683973Y-108477251D01*
X167720500Y-108293616D01*
X167720500Y-108106384D01*
X167683973Y-107922749D01*
X167612322Y-107749769D01*
X167612321Y-107749768D01*
X167612318Y-107749762D01*
X167508302Y-107594092D01*
X167508299Y-107594088D01*
X167375911Y-107461700D01*
X167375907Y-107461697D01*
X167220237Y-107357681D01*
X167220228Y-107357676D01*
X167047251Y-107286027D01*
X167047243Y-107286025D01*
X166863620Y-107249500D01*
X166863616Y-107249500D01*
X166676384Y-107249500D01*
X166676379Y-107249500D01*
X166492756Y-107286025D01*
X166492748Y-107286027D01*
X166319771Y-107357676D01*
X166319762Y-107357681D01*
X166164092Y-107461697D01*
X166164088Y-107461700D01*
X166031700Y-107594088D01*
X166031697Y-107594092D01*
X165927681Y-107749762D01*
X165927676Y-107749771D01*
X165856027Y-107922748D01*
X165856025Y-107922756D01*
X165819500Y-108106379D01*
X125850500Y-108106379D01*
X125850500Y-105410000D01*
X165493391Y-105410000D01*
X166336988Y-105410000D01*
X166304075Y-105467007D01*
X166270000Y-105594174D01*
X166270000Y-105725826D01*
X166304075Y-105852993D01*
X166336988Y-105910000D01*
X165493391Y-105910000D01*
X165502009Y-105964413D01*
X165565244Y-106159029D01*
X165658140Y-106341349D01*
X165778417Y-106506894D01*
X165778417Y-106506895D01*
X165923104Y-106651582D01*
X166088650Y-106771859D01*
X166270968Y-106864754D01*
X166465578Y-106927988D01*
X166520000Y-106936607D01*
X166520000Y-106093012D01*
X166577007Y-106125925D01*
X166704174Y-106160000D01*
X166835826Y-106160000D01*
X166962993Y-106125925D01*
X167020000Y-106093012D01*
X167020000Y-106936606D01*
X167074421Y-106927988D01*
X167269031Y-106864754D01*
X167451349Y-106771859D01*
X167616894Y-106651582D01*
X167616895Y-106651582D01*
X167761582Y-106506895D01*
X167761582Y-106506894D01*
X167881859Y-106341349D01*
X167974755Y-106159029D01*
X168037990Y-105964413D01*
X168046609Y-105910000D01*
X167203012Y-105910000D01*
X167235925Y-105852993D01*
X167270000Y-105725826D01*
X167270000Y-105594174D01*
X167262552Y-105566379D01*
X181059500Y-105566379D01*
X181059500Y-105753620D01*
X181096025Y-105937243D01*
X181096027Y-105937251D01*
X181167676Y-106110228D01*
X181167681Y-106110237D01*
X181271697Y-106265907D01*
X181271700Y-106265911D01*
X181404088Y-106398299D01*
X181404092Y-106398302D01*
X181559762Y-106502318D01*
X181559771Y-106502323D01*
X181570809Y-106506895D01*
X181732749Y-106573973D01*
X181916379Y-106610499D01*
X181916383Y-106610500D01*
X181916384Y-106610500D01*
X182103617Y-106610500D01*
X182103618Y-106610499D01*
X182287251Y-106573973D01*
X182460231Y-106502322D01*
X182615908Y-106398302D01*
X182748302Y-106265908D01*
X182852322Y-106110231D01*
X182923973Y-105937251D01*
X182960500Y-105753616D01*
X182960500Y-105566384D01*
X182923973Y-105382749D01*
X182885553Y-105289995D01*
X207542300Y-105289995D01*
X207542300Y-105450005D01*
X207583714Y-105604564D01*
X207583715Y-105604565D01*
X207583715Y-105604566D01*
X207663716Y-105743133D01*
X207663718Y-105743136D01*
X207663719Y-105743137D01*
X207776863Y-105856281D01*
X207776864Y-105856282D01*
X207776866Y-105856283D01*
X207780434Y-105858343D01*
X207915436Y-105936286D01*
X208069995Y-105977700D01*
X208069997Y-105977700D01*
X208230002Y-105977700D01*
X208230005Y-105977700D01*
X208384564Y-105936286D01*
X208523137Y-105856281D01*
X208636281Y-105743137D01*
X208716286Y-105604564D01*
X208757700Y-105450005D01*
X208757700Y-105289995D01*
X208716286Y-105135436D01*
X208636281Y-104996863D01*
X208523137Y-104883719D01*
X208523136Y-104883718D01*
X208523133Y-104883716D01*
X208384566Y-104803715D01*
X208384565Y-104803714D01*
X208384564Y-104803714D01*
X208230005Y-104762300D01*
X208069995Y-104762300D01*
X207915436Y-104803714D01*
X207915434Y-104803715D01*
X207915433Y-104803715D01*
X207776866Y-104883716D01*
X207776861Y-104883720D01*
X207663720Y-104996861D01*
X207663716Y-104996866D01*
X207583715Y-105135433D01*
X207583715Y-105135434D01*
X207583714Y-105135436D01*
X207542300Y-105289995D01*
X182885553Y-105289995D01*
X182852322Y-105209769D01*
X182852321Y-105209768D01*
X182852318Y-105209762D01*
X182748302Y-105054092D01*
X182748299Y-105054088D01*
X182615911Y-104921700D01*
X182615907Y-104921697D01*
X182460237Y-104817681D01*
X182460228Y-104817676D01*
X182287251Y-104746027D01*
X182287243Y-104746025D01*
X182103620Y-104709500D01*
X182103616Y-104709500D01*
X181916384Y-104709500D01*
X181916379Y-104709500D01*
X181732756Y-104746025D01*
X181732748Y-104746027D01*
X181559771Y-104817676D01*
X181559762Y-104817681D01*
X181404092Y-104921697D01*
X181404088Y-104921700D01*
X181271700Y-105054088D01*
X181271697Y-105054092D01*
X181167681Y-105209762D01*
X181167676Y-105209771D01*
X181096027Y-105382748D01*
X181096025Y-105382756D01*
X181059500Y-105566379D01*
X167262552Y-105566379D01*
X167235925Y-105467007D01*
X167203012Y-105410000D01*
X168046609Y-105410000D01*
X168037990Y-105355586D01*
X167974755Y-105160970D01*
X167881859Y-104978650D01*
X167761582Y-104813105D01*
X167761582Y-104813104D01*
X167616895Y-104668417D01*
X167506866Y-104588476D01*
X246699500Y-104588476D01*
X246699500Y-105651523D01*
X246714352Y-105745298D01*
X246714353Y-105745301D01*
X246714354Y-105745303D01*
X246718592Y-105753620D01*
X246771951Y-105858343D01*
X246771954Y-105858347D01*
X246861652Y-105948045D01*
X246861656Y-105948048D01*
X246861658Y-105948050D01*
X246974697Y-106005646D01*
X246974699Y-106005646D01*
X246974701Y-106005647D01*
X247068477Y-106020500D01*
X247068482Y-106020500D01*
X248651523Y-106020500D01*
X248745298Y-106005647D01*
X248745298Y-106005646D01*
X248745303Y-106005646D01*
X248858342Y-105948050D01*
X248948050Y-105858342D01*
X249005646Y-105745303D01*
X249008731Y-105725826D01*
X249020500Y-105651523D01*
X249020500Y-104588476D01*
X249005647Y-104494701D01*
X249005646Y-104494699D01*
X249005646Y-104494697D01*
X248948050Y-104381658D01*
X248948048Y-104381656D01*
X248948045Y-104381652D01*
X248858347Y-104291954D01*
X248858343Y-104291951D01*
X248858342Y-104291950D01*
X248745303Y-104234354D01*
X248745301Y-104234353D01*
X248745298Y-104234352D01*
X248651523Y-104219500D01*
X248651518Y-104219500D01*
X247068482Y-104219500D01*
X247068477Y-104219500D01*
X246974701Y-104234352D01*
X246861656Y-104291951D01*
X246861652Y-104291954D01*
X246771954Y-104381652D01*
X246771951Y-104381656D01*
X246714352Y-104494701D01*
X246699500Y-104588476D01*
X167506866Y-104588476D01*
X167451349Y-104548140D01*
X167269029Y-104455244D01*
X167074413Y-104392009D01*
X167020000Y-104383390D01*
X167020000Y-105226988D01*
X166962993Y-105194075D01*
X166835826Y-105160000D01*
X166704174Y-105160000D01*
X166577007Y-105194075D01*
X166520000Y-105226988D01*
X166520000Y-104383390D01*
X166465586Y-104392009D01*
X166270970Y-104455244D01*
X166088650Y-104548140D01*
X165923105Y-104668417D01*
X165923104Y-104668417D01*
X165778417Y-104813104D01*
X165778417Y-104813105D01*
X165658140Y-104978650D01*
X165565244Y-105160970D01*
X165502009Y-105355586D01*
X165493391Y-105410000D01*
X125850500Y-105410000D01*
X125850500Y-103026379D01*
X165819500Y-103026379D01*
X165819500Y-103213620D01*
X165856025Y-103397243D01*
X165856027Y-103397251D01*
X165927676Y-103570228D01*
X165927681Y-103570237D01*
X166031697Y-103725907D01*
X166031700Y-103725911D01*
X166164088Y-103858299D01*
X166164092Y-103858302D01*
X166319762Y-103962318D01*
X166319768Y-103962321D01*
X166319769Y-103962322D01*
X166492749Y-104033973D01*
X166676379Y-104070499D01*
X166676383Y-104070500D01*
X166676384Y-104070500D01*
X166863617Y-104070500D01*
X166863618Y-104070499D01*
X167047251Y-104033973D01*
X167220231Y-103962322D01*
X167375908Y-103858302D01*
X167508302Y-103725908D01*
X167612322Y-103570231D01*
X167683973Y-103397251D01*
X167720500Y-103213616D01*
X167720500Y-103026384D01*
X167720499Y-103026379D01*
X181059500Y-103026379D01*
X181059500Y-103213620D01*
X181096025Y-103397243D01*
X181096027Y-103397251D01*
X181167676Y-103570228D01*
X181167681Y-103570237D01*
X181271697Y-103725907D01*
X181271700Y-103725911D01*
X181404088Y-103858299D01*
X181404092Y-103858302D01*
X181559762Y-103962318D01*
X181559768Y-103962321D01*
X181559769Y-103962322D01*
X181732749Y-104033973D01*
X181916379Y-104070499D01*
X181916383Y-104070500D01*
X181916384Y-104070500D01*
X182103617Y-104070500D01*
X182103618Y-104070499D01*
X182287251Y-104033973D01*
X182460231Y-103962322D01*
X182615908Y-103858302D01*
X182748302Y-103725908D01*
X182852322Y-103570231D01*
X182923973Y-103397251D01*
X182960500Y-103213616D01*
X182960500Y-103026384D01*
X182923973Y-102842749D01*
X182852322Y-102669769D01*
X182852321Y-102669768D01*
X182852318Y-102669762D01*
X182748302Y-102514092D01*
X182748299Y-102514088D01*
X182615911Y-102381700D01*
X182615907Y-102381697D01*
X182539572Y-102330691D01*
X236149500Y-102330691D01*
X236149500Y-102449309D01*
X236180201Y-102563886D01*
X236239511Y-102666613D01*
X236323387Y-102750489D01*
X236426114Y-102809799D01*
X236540691Y-102840500D01*
X236540694Y-102840500D01*
X236659306Y-102840500D01*
X236659309Y-102840500D01*
X236773886Y-102809799D01*
X236876613Y-102750489D01*
X236960489Y-102666613D01*
X237019799Y-102563886D01*
X237050500Y-102449309D01*
X237050500Y-102330691D01*
X237019799Y-102216114D01*
X236960489Y-102113387D01*
X236876613Y-102029511D01*
X236773886Y-101970201D01*
X236659309Y-101939500D01*
X236540691Y-101939500D01*
X236426114Y-101970201D01*
X236426112Y-101970201D01*
X236426112Y-101970202D01*
X236323387Y-102029511D01*
X236323384Y-102029513D01*
X236239513Y-102113384D01*
X236239511Y-102113387D01*
X236196928Y-102187143D01*
X236180201Y-102216114D01*
X236149500Y-102330691D01*
X182539572Y-102330691D01*
X182460237Y-102277681D01*
X182460228Y-102277676D01*
X182287251Y-102206027D01*
X182287243Y-102206025D01*
X182103620Y-102169500D01*
X182103616Y-102169500D01*
X181916384Y-102169500D01*
X181916379Y-102169500D01*
X181732756Y-102206025D01*
X181732748Y-102206027D01*
X181559771Y-102277676D01*
X181559762Y-102277681D01*
X181404092Y-102381697D01*
X181404088Y-102381700D01*
X181271700Y-102514088D01*
X181271697Y-102514092D01*
X181167681Y-102669762D01*
X181167676Y-102669771D01*
X181096027Y-102842748D01*
X181096025Y-102842756D01*
X181059500Y-103026379D01*
X167720499Y-103026379D01*
X167683973Y-102842749D01*
X167612322Y-102669769D01*
X167612321Y-102669768D01*
X167612318Y-102669762D01*
X167508302Y-102514092D01*
X167508299Y-102514088D01*
X167375911Y-102381700D01*
X167375907Y-102381697D01*
X167220237Y-102277681D01*
X167220228Y-102277676D01*
X167047251Y-102206027D01*
X167047243Y-102206025D01*
X166863620Y-102169500D01*
X166863616Y-102169500D01*
X166676384Y-102169500D01*
X166676379Y-102169500D01*
X166492756Y-102206025D01*
X166492748Y-102206027D01*
X166319771Y-102277676D01*
X166319762Y-102277681D01*
X166164092Y-102381697D01*
X166164088Y-102381700D01*
X166031700Y-102514088D01*
X166031697Y-102514092D01*
X165927681Y-102669762D01*
X165927676Y-102669771D01*
X165856027Y-102842748D01*
X165856025Y-102842756D01*
X165819500Y-103026379D01*
X125850500Y-103026379D01*
X125850500Y-101870000D01*
X246374016Y-101870000D01*
X247415440Y-101870000D01*
X247384755Y-101923147D01*
X247350000Y-102052857D01*
X247350000Y-102187143D01*
X247384755Y-102316853D01*
X247415440Y-102370000D01*
X246374016Y-102370000D01*
X246380781Y-102412716D01*
X246441581Y-102599837D01*
X246530904Y-102775143D01*
X246646555Y-102934321D01*
X246785678Y-103073444D01*
X246944856Y-103189095D01*
X247120164Y-103278418D01*
X247307294Y-103339221D01*
X247501618Y-103370000D01*
X247610000Y-103370000D01*
X247610000Y-102564560D01*
X247663147Y-102595245D01*
X247792857Y-102630000D01*
X247927143Y-102630000D01*
X248056853Y-102595245D01*
X248110000Y-102564560D01*
X248110000Y-103370000D01*
X248218382Y-103370000D01*
X248412705Y-103339221D01*
X248599835Y-103278418D01*
X248775143Y-103189095D01*
X248934321Y-103073444D01*
X249073444Y-102934321D01*
X249189095Y-102775143D01*
X249278418Y-102599837D01*
X249339218Y-102412716D01*
X249345984Y-102370000D01*
X248304560Y-102370000D01*
X248335245Y-102316853D01*
X248370000Y-102187143D01*
X248370000Y-102052857D01*
X248335245Y-101923147D01*
X248304560Y-101870000D01*
X249345984Y-101870000D01*
X249339218Y-101827283D01*
X249278418Y-101640162D01*
X249189095Y-101464856D01*
X249073444Y-101305678D01*
X248934321Y-101166555D01*
X248775143Y-101050904D01*
X248599835Y-100961581D01*
X248412705Y-100900778D01*
X248218382Y-100870000D01*
X248110000Y-100870000D01*
X248110000Y-101675439D01*
X248056853Y-101644755D01*
X247927143Y-101610000D01*
X247792857Y-101610000D01*
X247663147Y-101644755D01*
X247610000Y-101675439D01*
X247610000Y-100870000D01*
X247501618Y-100870000D01*
X247307294Y-100900778D01*
X247120164Y-100961581D01*
X246944856Y-101050904D01*
X246785678Y-101166555D01*
X246646555Y-101305678D01*
X246530904Y-101464856D01*
X246441581Y-101640162D01*
X246380781Y-101827283D01*
X246374016Y-101870000D01*
X125850500Y-101870000D01*
X125850500Y-100486379D01*
X165819500Y-100486379D01*
X165819500Y-100673620D01*
X165856025Y-100857243D01*
X165856027Y-100857251D01*
X165927676Y-101030228D01*
X165927681Y-101030237D01*
X166031697Y-101185907D01*
X166031700Y-101185911D01*
X166164088Y-101318299D01*
X166164092Y-101318302D01*
X166319762Y-101422318D01*
X166319771Y-101422323D01*
X166330809Y-101426895D01*
X166492749Y-101493973D01*
X166676379Y-101530499D01*
X166676383Y-101530500D01*
X166676384Y-101530500D01*
X166863617Y-101530500D01*
X166863618Y-101530499D01*
X167047251Y-101493973D01*
X167220231Y-101422322D01*
X167375908Y-101318302D01*
X167508302Y-101185908D01*
X167612322Y-101030231D01*
X167683973Y-100857251D01*
X167705210Y-100750488D01*
X167720499Y-100673620D01*
X167720500Y-100673617D01*
X167720500Y-100486383D01*
X167720499Y-100486379D01*
X167701578Y-100391254D01*
X167689531Y-100330691D01*
X167689394Y-100330000D01*
X180733391Y-100330000D01*
X181576988Y-100330000D01*
X181544075Y-100387007D01*
X181510000Y-100514174D01*
X181510000Y-100645826D01*
X181544075Y-100772993D01*
X181576988Y-100830000D01*
X180733391Y-100830000D01*
X180742009Y-100884413D01*
X180805244Y-101079029D01*
X180898140Y-101261349D01*
X181018417Y-101426894D01*
X181018417Y-101426895D01*
X181163104Y-101571582D01*
X181328650Y-101691859D01*
X181510968Y-101784754D01*
X181705578Y-101847988D01*
X181760000Y-101856607D01*
X181760000Y-101013012D01*
X181817007Y-101045925D01*
X181944174Y-101080000D01*
X182075826Y-101080000D01*
X182202993Y-101045925D01*
X182260000Y-101013012D01*
X182260000Y-101856606D01*
X182314421Y-101847988D01*
X182509031Y-101784754D01*
X182691349Y-101691859D01*
X182856894Y-101571582D01*
X182856895Y-101571582D01*
X183001582Y-101426895D01*
X183001582Y-101426894D01*
X183121859Y-101261349D01*
X183214755Y-101079029D01*
X183277990Y-100884413D01*
X183286609Y-100830000D01*
X182443012Y-100830000D01*
X182466109Y-100789995D01*
X226042300Y-100789995D01*
X226042300Y-100950005D01*
X226083714Y-101104564D01*
X226083715Y-101104565D01*
X226083715Y-101104566D01*
X226163716Y-101243133D01*
X226163718Y-101243136D01*
X226163719Y-101243137D01*
X226276863Y-101356281D01*
X226415436Y-101436286D01*
X226569995Y-101477700D01*
X226569997Y-101477700D01*
X226730002Y-101477700D01*
X226730005Y-101477700D01*
X226884564Y-101436286D01*
X227023137Y-101356281D01*
X227136281Y-101243137D01*
X227216286Y-101104564D01*
X227257700Y-100950005D01*
X227257700Y-100789995D01*
X227216286Y-100635436D01*
X227174977Y-100563886D01*
X227136283Y-100496866D01*
X227136279Y-100496861D01*
X227023138Y-100383720D01*
X227023133Y-100383716D01*
X226931290Y-100330691D01*
X234149500Y-100330691D01*
X234149500Y-100449309D01*
X234180201Y-100563886D01*
X234239511Y-100666613D01*
X234323387Y-100750489D01*
X234426114Y-100809799D01*
X234540691Y-100840500D01*
X234540694Y-100840500D01*
X234659306Y-100840500D01*
X234659309Y-100840500D01*
X234773886Y-100809799D01*
X234876613Y-100750489D01*
X234960489Y-100666613D01*
X235019799Y-100563886D01*
X235050500Y-100449309D01*
X235050500Y-100330691D01*
X235019799Y-100216114D01*
X234960489Y-100113387D01*
X234876613Y-100029511D01*
X234773886Y-99970201D01*
X234659309Y-99939500D01*
X234540691Y-99939500D01*
X234426114Y-99970201D01*
X234426112Y-99970201D01*
X234426112Y-99970202D01*
X234323387Y-100029511D01*
X234323384Y-100029513D01*
X234239513Y-100113384D01*
X234239511Y-100113387D01*
X234189502Y-100200005D01*
X234180201Y-100216114D01*
X234149500Y-100330691D01*
X226931290Y-100330691D01*
X226884566Y-100303715D01*
X226884565Y-100303714D01*
X226884564Y-100303714D01*
X226730005Y-100262300D01*
X226569995Y-100262300D01*
X226415436Y-100303714D01*
X226415434Y-100303715D01*
X226415433Y-100303715D01*
X226276866Y-100383716D01*
X226276861Y-100383720D01*
X226163720Y-100496861D01*
X226163716Y-100496866D01*
X226083715Y-100635433D01*
X226083715Y-100635434D01*
X226083714Y-100635436D01*
X226042300Y-100789995D01*
X182466109Y-100789995D01*
X182475925Y-100772993D01*
X182510000Y-100645826D01*
X182510000Y-100514174D01*
X182475925Y-100387007D01*
X182443012Y-100330000D01*
X183286609Y-100330000D01*
X183277990Y-100275586D01*
X183214755Y-100080970D01*
X183193877Y-100039995D01*
X193292300Y-100039995D01*
X193292300Y-100200005D01*
X193333714Y-100354564D01*
X193333715Y-100354565D01*
X193333715Y-100354566D01*
X193413716Y-100493133D01*
X193413718Y-100493136D01*
X193413719Y-100493137D01*
X193526863Y-100606281D01*
X193526864Y-100606282D01*
X193526866Y-100606283D01*
X193577361Y-100635436D01*
X193665436Y-100686286D01*
X193819995Y-100727700D01*
X193819997Y-100727700D01*
X193980002Y-100727700D01*
X193980005Y-100727700D01*
X194134564Y-100686286D01*
X194273137Y-100606281D01*
X194386281Y-100493137D01*
X194466286Y-100354564D01*
X194507700Y-100200005D01*
X194507700Y-100039995D01*
X195292300Y-100039995D01*
X195292300Y-100200005D01*
X195333714Y-100354564D01*
X195333715Y-100354565D01*
X195333715Y-100354566D01*
X195413716Y-100493133D01*
X195413718Y-100493136D01*
X195413719Y-100493137D01*
X195526863Y-100606281D01*
X195526864Y-100606282D01*
X195526866Y-100606283D01*
X195577361Y-100635436D01*
X195665436Y-100686286D01*
X195819995Y-100727700D01*
X195819997Y-100727700D01*
X195980002Y-100727700D01*
X195980005Y-100727700D01*
X196134564Y-100686286D01*
X196273137Y-100606281D01*
X196386281Y-100493137D01*
X196466286Y-100354564D01*
X196507700Y-100200005D01*
X196507700Y-100039995D01*
X217792300Y-100039995D01*
X217792300Y-100200005D01*
X217833714Y-100354564D01*
X217833715Y-100354565D01*
X217833715Y-100354566D01*
X217913716Y-100493133D01*
X217913718Y-100493136D01*
X217913719Y-100493137D01*
X218026863Y-100606281D01*
X218026864Y-100606282D01*
X218026866Y-100606283D01*
X218077361Y-100635436D01*
X218165436Y-100686286D01*
X218319995Y-100727700D01*
X218319997Y-100727700D01*
X218480002Y-100727700D01*
X218480005Y-100727700D01*
X218634564Y-100686286D01*
X218773137Y-100606281D01*
X218886281Y-100493137D01*
X218966286Y-100354564D01*
X219007700Y-100200005D01*
X219007700Y-100039995D01*
X218966286Y-99885436D01*
X218886281Y-99746863D01*
X218773137Y-99633719D01*
X218773136Y-99633718D01*
X218773133Y-99633716D01*
X218634566Y-99553715D01*
X218634565Y-99553714D01*
X218634564Y-99553714D01*
X218480005Y-99512300D01*
X218319995Y-99512300D01*
X218165436Y-99553714D01*
X218165434Y-99553715D01*
X218165433Y-99553715D01*
X218026866Y-99633716D01*
X218026861Y-99633720D01*
X217913720Y-99746861D01*
X217913716Y-99746866D01*
X217833715Y-99885433D01*
X217833715Y-99885434D01*
X217833714Y-99885436D01*
X217792300Y-100039995D01*
X196507700Y-100039995D01*
X196466286Y-99885436D01*
X196386281Y-99746863D01*
X196273137Y-99633719D01*
X196273136Y-99633718D01*
X196273133Y-99633716D01*
X196134566Y-99553715D01*
X196134565Y-99553714D01*
X196134564Y-99553714D01*
X195980005Y-99512300D01*
X195819995Y-99512300D01*
X195665436Y-99553714D01*
X195665434Y-99553715D01*
X195665433Y-99553715D01*
X195526866Y-99633716D01*
X195526861Y-99633720D01*
X195413720Y-99746861D01*
X195413716Y-99746866D01*
X195333715Y-99885433D01*
X195333715Y-99885434D01*
X195333714Y-99885436D01*
X195292300Y-100039995D01*
X194507700Y-100039995D01*
X194466286Y-99885436D01*
X194386281Y-99746863D01*
X194273137Y-99633719D01*
X194273136Y-99633718D01*
X194273133Y-99633716D01*
X194134566Y-99553715D01*
X194134565Y-99553714D01*
X194134564Y-99553714D01*
X193980005Y-99512300D01*
X193819995Y-99512300D01*
X193665436Y-99553714D01*
X193665434Y-99553715D01*
X193665433Y-99553715D01*
X193526866Y-99633716D01*
X193526861Y-99633720D01*
X193413720Y-99746861D01*
X193413716Y-99746866D01*
X193333715Y-99885433D01*
X193333715Y-99885434D01*
X193333714Y-99885436D01*
X193292300Y-100039995D01*
X183193877Y-100039995D01*
X183121859Y-99898650D01*
X183001582Y-99733105D01*
X183001582Y-99733104D01*
X182856895Y-99588417D01*
X182691349Y-99468140D01*
X182509029Y-99375244D01*
X182314413Y-99312009D01*
X182260000Y-99303390D01*
X182260000Y-100146988D01*
X182202993Y-100114075D01*
X182075826Y-100080000D01*
X181944174Y-100080000D01*
X181817007Y-100114075D01*
X181760000Y-100146988D01*
X181760000Y-99303390D01*
X181705586Y-99312009D01*
X181510970Y-99375244D01*
X181328650Y-99468140D01*
X181163105Y-99588417D01*
X181163104Y-99588417D01*
X181018417Y-99733104D01*
X181018417Y-99733105D01*
X180898140Y-99898650D01*
X180805244Y-100080970D01*
X180742009Y-100275586D01*
X180733391Y-100330000D01*
X167689394Y-100330000D01*
X167683973Y-100302749D01*
X167612322Y-100129769D01*
X167612321Y-100129768D01*
X167612318Y-100129762D01*
X167508302Y-99974092D01*
X167508299Y-99974088D01*
X167375911Y-99841700D01*
X167375907Y-99841697D01*
X167220237Y-99737681D01*
X167220228Y-99737676D01*
X167047251Y-99666027D01*
X167047243Y-99666025D01*
X166863620Y-99629500D01*
X166863616Y-99629500D01*
X166676384Y-99629500D01*
X166676379Y-99629500D01*
X166492756Y-99666025D01*
X166492748Y-99666027D01*
X166319771Y-99737676D01*
X166319762Y-99737681D01*
X166164092Y-99841697D01*
X166164088Y-99841700D01*
X166031700Y-99974088D01*
X166031697Y-99974092D01*
X165927681Y-100129762D01*
X165927676Y-100129771D01*
X165856027Y-100302748D01*
X165856025Y-100302756D01*
X165819500Y-100486379D01*
X125850500Y-100486379D01*
X125850500Y-99032781D01*
X245014500Y-99032781D01*
X245014500Y-99207218D01*
X245048527Y-99378283D01*
X245048529Y-99378291D01*
X245115278Y-99539439D01*
X245115283Y-99539448D01*
X245212186Y-99684473D01*
X245212189Y-99684477D01*
X245335522Y-99807810D01*
X245335526Y-99807813D01*
X245480551Y-99904716D01*
X245480557Y-99904719D01*
X245480558Y-99904720D01*
X245641709Y-99971471D01*
X245812781Y-100005499D01*
X245812785Y-100005500D01*
X245812786Y-100005500D01*
X245987215Y-100005500D01*
X245987216Y-100005499D01*
X246158291Y-99971471D01*
X246319442Y-99904720D01*
X246464474Y-99807813D01*
X246587813Y-99684474D01*
X246684720Y-99539442D01*
X246751471Y-99378291D01*
X246785500Y-99207214D01*
X246785500Y-99032786D01*
X246751471Y-98861709D01*
X246684720Y-98700558D01*
X246684719Y-98700557D01*
X246684716Y-98700551D01*
X246587813Y-98555526D01*
X246587810Y-98555522D01*
X246464477Y-98432189D01*
X246464473Y-98432186D01*
X246319448Y-98335283D01*
X246319439Y-98335278D01*
X246158291Y-98268529D01*
X246158283Y-98268527D01*
X245987218Y-98234500D01*
X245987214Y-98234500D01*
X245812786Y-98234500D01*
X245812781Y-98234500D01*
X245641716Y-98268527D01*
X245641708Y-98268529D01*
X245480560Y-98335278D01*
X245480551Y-98335283D01*
X245335526Y-98432186D01*
X245335522Y-98432189D01*
X245212189Y-98555522D01*
X245212186Y-98555526D01*
X245115283Y-98700551D01*
X245115278Y-98700560D01*
X245048529Y-98861708D01*
X245048527Y-98861716D01*
X245014500Y-99032781D01*
X125850500Y-99032781D01*
X125850500Y-97946379D01*
X165819500Y-97946379D01*
X165819500Y-98133620D01*
X165856025Y-98317243D01*
X165856027Y-98317251D01*
X165927676Y-98490228D01*
X165927681Y-98490237D01*
X166031697Y-98645907D01*
X166031700Y-98645911D01*
X166164088Y-98778299D01*
X166164092Y-98778302D01*
X166319762Y-98882318D01*
X166319768Y-98882321D01*
X166319769Y-98882322D01*
X166492749Y-98953973D01*
X166676379Y-98990499D01*
X166676383Y-98990500D01*
X166676384Y-98990500D01*
X166863617Y-98990500D01*
X166863618Y-98990499D01*
X167047251Y-98953973D01*
X167220231Y-98882322D01*
X167375908Y-98778302D01*
X167508302Y-98645908D01*
X167612322Y-98490231D01*
X167683973Y-98317251D01*
X167720500Y-98133616D01*
X167720500Y-97946384D01*
X167720499Y-97946379D01*
X181059500Y-97946379D01*
X181059500Y-98133620D01*
X181096025Y-98317243D01*
X181096027Y-98317251D01*
X181167676Y-98490228D01*
X181167681Y-98490237D01*
X181271697Y-98645907D01*
X181271700Y-98645911D01*
X181404088Y-98778299D01*
X181404092Y-98778302D01*
X181559762Y-98882318D01*
X181559768Y-98882321D01*
X181559769Y-98882322D01*
X181732749Y-98953973D01*
X181916379Y-98990499D01*
X181916383Y-98990500D01*
X181916384Y-98990500D01*
X182103617Y-98990500D01*
X182103618Y-98990499D01*
X182287251Y-98953973D01*
X182460231Y-98882322D01*
X182615908Y-98778302D01*
X182748302Y-98645908D01*
X182852322Y-98490231D01*
X182923973Y-98317251D01*
X182960500Y-98133616D01*
X182960500Y-97946384D01*
X182957103Y-97929306D01*
X182936705Y-97826755D01*
X182933509Y-97810691D01*
X186449500Y-97810691D01*
X186449500Y-97929309D01*
X186480201Y-98043886D01*
X186539511Y-98146613D01*
X186623387Y-98230489D01*
X186726114Y-98289799D01*
X186840691Y-98320500D01*
X186840694Y-98320500D01*
X186959306Y-98320500D01*
X186959309Y-98320500D01*
X187073886Y-98289799D01*
X187176613Y-98230489D01*
X187260489Y-98146613D01*
X187319799Y-98043886D01*
X187350500Y-97929309D01*
X187350500Y-97810691D01*
X187319799Y-97696114D01*
X187260489Y-97593387D01*
X187176613Y-97509511D01*
X187073886Y-97450201D01*
X186959309Y-97419500D01*
X186840691Y-97419500D01*
X186726114Y-97450201D01*
X186726112Y-97450201D01*
X186726112Y-97450202D01*
X186623387Y-97509511D01*
X186623384Y-97509513D01*
X186539513Y-97593384D01*
X186539511Y-97593387D01*
X186480201Y-97696114D01*
X186449500Y-97810691D01*
X182933509Y-97810691D01*
X182923974Y-97762756D01*
X182923973Y-97762749D01*
X182853821Y-97593387D01*
X182852323Y-97589771D01*
X182852318Y-97589762D01*
X182748302Y-97434092D01*
X182748299Y-97434088D01*
X182615911Y-97301700D01*
X182615907Y-97301697D01*
X182460237Y-97197681D01*
X182460228Y-97197676D01*
X182287251Y-97126027D01*
X182287243Y-97126025D01*
X182103620Y-97089500D01*
X182103616Y-97089500D01*
X181916384Y-97089500D01*
X181916379Y-97089500D01*
X181732756Y-97126025D01*
X181732748Y-97126027D01*
X181559771Y-97197676D01*
X181559762Y-97197681D01*
X181404092Y-97301697D01*
X181404088Y-97301700D01*
X181271700Y-97434088D01*
X181271697Y-97434092D01*
X181167681Y-97589762D01*
X181167676Y-97589771D01*
X181096027Y-97762748D01*
X181096025Y-97762756D01*
X181059500Y-97946379D01*
X167720499Y-97946379D01*
X167683973Y-97762749D01*
X167613821Y-97593387D01*
X167612323Y-97589771D01*
X167612318Y-97589762D01*
X167508302Y-97434092D01*
X167508299Y-97434088D01*
X167375911Y-97301700D01*
X167375907Y-97301697D01*
X167220237Y-97197681D01*
X167220228Y-97197676D01*
X167047251Y-97126027D01*
X167047243Y-97126025D01*
X166863620Y-97089500D01*
X166863616Y-97089500D01*
X166676384Y-97089500D01*
X166676379Y-97089500D01*
X166492756Y-97126025D01*
X166492748Y-97126027D01*
X166319771Y-97197676D01*
X166319762Y-97197681D01*
X166164092Y-97301697D01*
X166164088Y-97301700D01*
X166031700Y-97434088D01*
X166031697Y-97434092D01*
X165927681Y-97589762D01*
X165927676Y-97589771D01*
X165856027Y-97762748D01*
X165856025Y-97762756D01*
X165819500Y-97946379D01*
X125850500Y-97946379D01*
X125850500Y-95125837D01*
X130527000Y-95125837D01*
X130527000Y-95354162D01*
X130562715Y-95579660D01*
X130633270Y-95796803D01*
X130711445Y-95950228D01*
X130736921Y-96000228D01*
X130871121Y-96184937D01*
X131032563Y-96346379D01*
X131217272Y-96480579D01*
X131313384Y-96529550D01*
X131420696Y-96584229D01*
X131420698Y-96584229D01*
X131420701Y-96584231D01*
X131537092Y-96622049D01*
X131637839Y-96654784D01*
X131863338Y-96690500D01*
X131863343Y-96690500D01*
X132091662Y-96690500D01*
X132317160Y-96654784D01*
X132534299Y-96584231D01*
X132737728Y-96480579D01*
X132922437Y-96346379D01*
X133083879Y-96184937D01*
X133218079Y-96000228D01*
X133321731Y-95796799D01*
X133392284Y-95579660D01*
X133419730Y-95406379D01*
X165819500Y-95406379D01*
X165819500Y-95593620D01*
X165856025Y-95777243D01*
X165856027Y-95777251D01*
X165927676Y-95950228D01*
X165927681Y-95950237D01*
X166031697Y-96105907D01*
X166031700Y-96105911D01*
X166164088Y-96238299D01*
X166164092Y-96238302D01*
X166319762Y-96342318D01*
X166319771Y-96342323D01*
X166329563Y-96346379D01*
X166492749Y-96413973D01*
X166676379Y-96450499D01*
X166676383Y-96450500D01*
X166676384Y-96450500D01*
X166863617Y-96450500D01*
X166863618Y-96450499D01*
X167047251Y-96413973D01*
X167220231Y-96342322D01*
X167375908Y-96238302D01*
X167508302Y-96105908D01*
X167612322Y-95950231D01*
X167683973Y-95777251D01*
X167720500Y-95593616D01*
X167720500Y-95406384D01*
X167720499Y-95406379D01*
X181059500Y-95406379D01*
X181059500Y-95593620D01*
X181096025Y-95777243D01*
X181096027Y-95777251D01*
X181167676Y-95950228D01*
X181167681Y-95950237D01*
X181271697Y-96105907D01*
X181271700Y-96105911D01*
X181404088Y-96238299D01*
X181404092Y-96238302D01*
X181559762Y-96342318D01*
X181559771Y-96342323D01*
X181569563Y-96346379D01*
X181732749Y-96413973D01*
X181916379Y-96450499D01*
X181916383Y-96450500D01*
X181916384Y-96450500D01*
X182103617Y-96450500D01*
X182103618Y-96450499D01*
X182287251Y-96413973D01*
X182460231Y-96342322D01*
X182615908Y-96238302D01*
X182748302Y-96105908D01*
X182797164Y-96032781D01*
X245014500Y-96032781D01*
X245014500Y-96207218D01*
X245048527Y-96378283D01*
X245048529Y-96378291D01*
X245115278Y-96539439D01*
X245115283Y-96539448D01*
X245212186Y-96684473D01*
X245212189Y-96684477D01*
X245335522Y-96807810D01*
X245335526Y-96807813D01*
X245480551Y-96904716D01*
X245480557Y-96904719D01*
X245480558Y-96904720D01*
X245641709Y-96971471D01*
X245812781Y-97005499D01*
X245812785Y-97005500D01*
X245812786Y-97005500D01*
X245987215Y-97005500D01*
X245987216Y-97005499D01*
X246158291Y-96971471D01*
X246319442Y-96904720D01*
X246464474Y-96807813D01*
X246587813Y-96684474D01*
X246684720Y-96539442D01*
X246751471Y-96378291D01*
X246785500Y-96207214D01*
X246785500Y-96032786D01*
X246751471Y-95861709D01*
X246684720Y-95700558D01*
X246684719Y-95700557D01*
X246684716Y-95700551D01*
X246587813Y-95555526D01*
X246587810Y-95555522D01*
X246464477Y-95432189D01*
X246464473Y-95432186D01*
X246319448Y-95335283D01*
X246319439Y-95335278D01*
X246158291Y-95268529D01*
X246158283Y-95268527D01*
X245987218Y-95234500D01*
X245987214Y-95234500D01*
X245812786Y-95234500D01*
X245812781Y-95234500D01*
X245641716Y-95268527D01*
X245641708Y-95268529D01*
X245480560Y-95335278D01*
X245480551Y-95335283D01*
X245335526Y-95432186D01*
X245335522Y-95432189D01*
X245212189Y-95555522D01*
X245212186Y-95555526D01*
X245115283Y-95700551D01*
X245115278Y-95700560D01*
X245048529Y-95861708D01*
X245048527Y-95861716D01*
X245014500Y-96032781D01*
X182797164Y-96032781D01*
X182852322Y-95950231D01*
X182923973Y-95777251D01*
X182960500Y-95593616D01*
X182960500Y-95406384D01*
X182923973Y-95222749D01*
X182852322Y-95049769D01*
X182852321Y-95049768D01*
X182852318Y-95049762D01*
X182748302Y-94894092D01*
X182748299Y-94894088D01*
X182615911Y-94761700D01*
X182615907Y-94761697D01*
X182460237Y-94657681D01*
X182460228Y-94657676D01*
X182287251Y-94586027D01*
X182287243Y-94586025D01*
X182103620Y-94549500D01*
X182103616Y-94549500D01*
X181916384Y-94549500D01*
X181916379Y-94549500D01*
X181732756Y-94586025D01*
X181732748Y-94586027D01*
X181559771Y-94657676D01*
X181559762Y-94657681D01*
X181404092Y-94761697D01*
X181404088Y-94761700D01*
X181271700Y-94894088D01*
X181271697Y-94894092D01*
X181167681Y-95049762D01*
X181167676Y-95049771D01*
X181096027Y-95222748D01*
X181096025Y-95222756D01*
X181059500Y-95406379D01*
X167720499Y-95406379D01*
X167683973Y-95222749D01*
X167612322Y-95049769D01*
X167612321Y-95049768D01*
X167612318Y-95049762D01*
X167508302Y-94894092D01*
X167508299Y-94894088D01*
X167375911Y-94761700D01*
X167375907Y-94761697D01*
X167220237Y-94657681D01*
X167220228Y-94657676D01*
X167047251Y-94586027D01*
X167047243Y-94586025D01*
X166863620Y-94549500D01*
X166863616Y-94549500D01*
X166676384Y-94549500D01*
X166676379Y-94549500D01*
X166492756Y-94586025D01*
X166492748Y-94586027D01*
X166319771Y-94657676D01*
X166319762Y-94657681D01*
X166164092Y-94761697D01*
X166164088Y-94761700D01*
X166031700Y-94894088D01*
X166031697Y-94894092D01*
X165927681Y-95049762D01*
X165927676Y-95049771D01*
X165856027Y-95222748D01*
X165856025Y-95222756D01*
X165819500Y-95406379D01*
X133419730Y-95406379D01*
X133423766Y-95380894D01*
X133428000Y-95354162D01*
X133428000Y-95125837D01*
X133392284Y-94900339D01*
X133321729Y-94683196D01*
X133218444Y-94480489D01*
X133218079Y-94479772D01*
X133083879Y-94295063D01*
X132922437Y-94133621D01*
X132822058Y-94060691D01*
X184949500Y-94060691D01*
X184949500Y-94179309D01*
X184980201Y-94293886D01*
X185039511Y-94396613D01*
X185123387Y-94480489D01*
X185226114Y-94539799D01*
X185340691Y-94570500D01*
X185340694Y-94570500D01*
X185459306Y-94570500D01*
X185459309Y-94570500D01*
X185573886Y-94539799D01*
X185676613Y-94480489D01*
X185760489Y-94396613D01*
X185819799Y-94293886D01*
X185820842Y-94289995D01*
X234292300Y-94289995D01*
X234292300Y-94450005D01*
X234333714Y-94604564D01*
X234333715Y-94604565D01*
X234333715Y-94604566D01*
X234413716Y-94743133D01*
X234413718Y-94743136D01*
X234413719Y-94743137D01*
X234526863Y-94856281D01*
X234665436Y-94936286D01*
X234819995Y-94977700D01*
X234819997Y-94977700D01*
X234980002Y-94977700D01*
X234980005Y-94977700D01*
X235134564Y-94936286D01*
X235273137Y-94856281D01*
X235386281Y-94743137D01*
X235466286Y-94604564D01*
X235507700Y-94450005D01*
X235507700Y-94289995D01*
X235466286Y-94135436D01*
X235399928Y-94020500D01*
X235386283Y-93996866D01*
X235386279Y-93996861D01*
X235273138Y-93883720D01*
X235273133Y-93883716D01*
X235134566Y-93803715D01*
X235134565Y-93803714D01*
X235134564Y-93803714D01*
X234980005Y-93762300D01*
X234819995Y-93762300D01*
X234665436Y-93803714D01*
X234665434Y-93803715D01*
X234665433Y-93803715D01*
X234526866Y-93883716D01*
X234526861Y-93883720D01*
X234413720Y-93996861D01*
X234413716Y-93996866D01*
X234333715Y-94135433D01*
X234333715Y-94135434D01*
X234333714Y-94135436D01*
X234292300Y-94289995D01*
X185820842Y-94289995D01*
X185850500Y-94179309D01*
X185850500Y-94060691D01*
X185819799Y-93946114D01*
X185760489Y-93843387D01*
X185676613Y-93759511D01*
X185573886Y-93700201D01*
X185459309Y-93669500D01*
X185340691Y-93669500D01*
X185226114Y-93700201D01*
X185226112Y-93700201D01*
X185226112Y-93700202D01*
X185123387Y-93759511D01*
X185123384Y-93759513D01*
X185039513Y-93843384D01*
X185039511Y-93843387D01*
X185000764Y-93910499D01*
X184980201Y-93946114D01*
X184949500Y-94060691D01*
X132822058Y-94060691D01*
X132737728Y-93999421D01*
X132695098Y-93977700D01*
X132534303Y-93895770D01*
X132317160Y-93825215D01*
X132091662Y-93789500D01*
X132091657Y-93789500D01*
X131863343Y-93789500D01*
X131863338Y-93789500D01*
X131637839Y-93825215D01*
X131420696Y-93895770D01*
X131217271Y-93999421D01*
X131032561Y-94133622D01*
X130871122Y-94295061D01*
X130736921Y-94479771D01*
X130633270Y-94683196D01*
X130562715Y-94900339D01*
X130527000Y-95125837D01*
X125850500Y-95125837D01*
X125850500Y-93109822D01*
X144624499Y-93109822D01*
X144633231Y-93153717D01*
X144633234Y-93153724D01*
X144666495Y-93203503D01*
X144666496Y-93203504D01*
X144716278Y-93236767D01*
X144716281Y-93236767D01*
X144716282Y-93236768D01*
X144760177Y-93245500D01*
X144760180Y-93245500D01*
X147639822Y-93245500D01*
X147683717Y-93236768D01*
X147683717Y-93236767D01*
X147683722Y-93236767D01*
X147733504Y-93203504D01*
X147766767Y-93153722D01*
X147766768Y-93153717D01*
X147775500Y-93109822D01*
X147775500Y-92866379D01*
X165819500Y-92866379D01*
X165819500Y-93053620D01*
X165856025Y-93237243D01*
X165856027Y-93237251D01*
X165927676Y-93410228D01*
X165927681Y-93410237D01*
X166031697Y-93565907D01*
X166031700Y-93565911D01*
X166164088Y-93698299D01*
X166164092Y-93698302D01*
X166319762Y-93802318D01*
X166319771Y-93802323D01*
X166323132Y-93803715D01*
X166492749Y-93873973D01*
X166676379Y-93910499D01*
X166676383Y-93910500D01*
X166676384Y-93910500D01*
X166863617Y-93910500D01*
X166863618Y-93910499D01*
X167047251Y-93873973D01*
X167220231Y-93802322D01*
X167375908Y-93698302D01*
X167508302Y-93565908D01*
X167612322Y-93410231D01*
X167683973Y-93237251D01*
X167720500Y-93053616D01*
X167720500Y-92866384D01*
X167720499Y-92866379D01*
X181059500Y-92866379D01*
X181059500Y-93053620D01*
X181096025Y-93237243D01*
X181096027Y-93237251D01*
X181167676Y-93410228D01*
X181167681Y-93410237D01*
X181271697Y-93565907D01*
X181271700Y-93565911D01*
X181404088Y-93698299D01*
X181404092Y-93698302D01*
X181559762Y-93802318D01*
X181559771Y-93802323D01*
X181563132Y-93803715D01*
X181732749Y-93873973D01*
X181916379Y-93910499D01*
X181916383Y-93910500D01*
X181916384Y-93910500D01*
X182103617Y-93910500D01*
X182103618Y-93910499D01*
X182287251Y-93873973D01*
X182460231Y-93802322D01*
X182615908Y-93698302D01*
X182748302Y-93565908D01*
X182852322Y-93410231D01*
X182923973Y-93237251D01*
X182960500Y-93053616D01*
X182960500Y-92866384D01*
X182950121Y-92814205D01*
X182923974Y-92682752D01*
X182923972Y-92682748D01*
X182912145Y-92654195D01*
X200042300Y-92654195D01*
X200042300Y-92814205D01*
X200083714Y-92968764D01*
X200083715Y-92968765D01*
X200083715Y-92968766D01*
X200163716Y-93107333D01*
X200163718Y-93107336D01*
X200163719Y-93107337D01*
X200276863Y-93220481D01*
X200276864Y-93220482D01*
X200276866Y-93220483D01*
X200320197Y-93245500D01*
X200415436Y-93300486D01*
X200569995Y-93341900D01*
X200569997Y-93341900D01*
X200730002Y-93341900D01*
X200730005Y-93341900D01*
X200884564Y-93300486D01*
X200902735Y-93289995D01*
X207292300Y-93289995D01*
X207292300Y-93450005D01*
X207333714Y-93604564D01*
X207333715Y-93604565D01*
X207333715Y-93604566D01*
X207413716Y-93743133D01*
X207413718Y-93743136D01*
X207413719Y-93743137D01*
X207526863Y-93856281D01*
X207526864Y-93856282D01*
X207526866Y-93856283D01*
X207557508Y-93873974D01*
X207665436Y-93936286D01*
X207819995Y-93977700D01*
X207819997Y-93977700D01*
X207980002Y-93977700D01*
X207980005Y-93977700D01*
X208134564Y-93936286D01*
X208273137Y-93856281D01*
X208386281Y-93743137D01*
X208466286Y-93604564D01*
X208507700Y-93450005D01*
X208507700Y-93289995D01*
X208466286Y-93135436D01*
X208386281Y-92996863D01*
X208273137Y-92883719D01*
X208273136Y-92883718D01*
X208273133Y-92883716D01*
X208134566Y-92803715D01*
X208134565Y-92803714D01*
X208134564Y-92803714D01*
X207980005Y-92762300D01*
X207819995Y-92762300D01*
X207665436Y-92803714D01*
X207665434Y-92803715D01*
X207665433Y-92803715D01*
X207526866Y-92883716D01*
X207526861Y-92883720D01*
X207413720Y-92996861D01*
X207413716Y-92996866D01*
X207333715Y-93135433D01*
X207333715Y-93135434D01*
X207333714Y-93135436D01*
X207292300Y-93289995D01*
X200902735Y-93289995D01*
X201023137Y-93220481D01*
X201136281Y-93107337D01*
X201216286Y-92968764D01*
X201257700Y-92814205D01*
X201257700Y-92654195D01*
X201240091Y-92588476D01*
X246699500Y-92588476D01*
X246699500Y-93651523D01*
X246714352Y-93745298D01*
X246714353Y-93745301D01*
X246714354Y-93745303D01*
X246770899Y-93856279D01*
X246771951Y-93858343D01*
X246771954Y-93858347D01*
X246861652Y-93948045D01*
X246861656Y-93948048D01*
X246861658Y-93948050D01*
X246974697Y-94005646D01*
X246974699Y-94005646D01*
X246974701Y-94005647D01*
X247068477Y-94020500D01*
X247068482Y-94020500D01*
X248651523Y-94020500D01*
X248745298Y-94005647D01*
X248745298Y-94005646D01*
X248745303Y-94005646D01*
X248858342Y-93948050D01*
X248948050Y-93858342D01*
X249005646Y-93745303D01*
X249005990Y-93743133D01*
X249020500Y-93651523D01*
X249020500Y-92588476D01*
X249005647Y-92494701D01*
X249005646Y-92494699D01*
X249005646Y-92494697D01*
X248948050Y-92381658D01*
X248948048Y-92381656D01*
X248948045Y-92381652D01*
X248858347Y-92291954D01*
X248858343Y-92291951D01*
X248858342Y-92291950D01*
X248745303Y-92234354D01*
X248745301Y-92234353D01*
X248745298Y-92234352D01*
X248651523Y-92219500D01*
X248651518Y-92219500D01*
X247068482Y-92219500D01*
X247068477Y-92219500D01*
X246974701Y-92234352D01*
X246861656Y-92291951D01*
X246861652Y-92291954D01*
X246771954Y-92381652D01*
X246771951Y-92381656D01*
X246714352Y-92494701D01*
X246699500Y-92588476D01*
X201240091Y-92588476D01*
X201216286Y-92499636D01*
X201148172Y-92381658D01*
X201136283Y-92361066D01*
X201136279Y-92361061D01*
X201023138Y-92247920D01*
X201023133Y-92247916D01*
X200884566Y-92167915D01*
X200884565Y-92167914D01*
X200884564Y-92167914D01*
X200730005Y-92126500D01*
X200569995Y-92126500D01*
X200415436Y-92167914D01*
X200415434Y-92167915D01*
X200415433Y-92167915D01*
X200276866Y-92247916D01*
X200276861Y-92247920D01*
X200163720Y-92361061D01*
X200163716Y-92361066D01*
X200083715Y-92499633D01*
X200083715Y-92499634D01*
X200083714Y-92499636D01*
X200042300Y-92654195D01*
X182912145Y-92654195D01*
X182852322Y-92509769D01*
X182852321Y-92509768D01*
X182852318Y-92509762D01*
X182748302Y-92354092D01*
X182748299Y-92354088D01*
X182615911Y-92221700D01*
X182615907Y-92221697D01*
X182460237Y-92117681D01*
X182460228Y-92117676D01*
X182287251Y-92046027D01*
X182287243Y-92046025D01*
X182103620Y-92009500D01*
X182103616Y-92009500D01*
X181916384Y-92009500D01*
X181916379Y-92009500D01*
X181732756Y-92046025D01*
X181732748Y-92046027D01*
X181559771Y-92117676D01*
X181559762Y-92117681D01*
X181404092Y-92221697D01*
X181404088Y-92221700D01*
X181271700Y-92354088D01*
X181271697Y-92354092D01*
X181167681Y-92509762D01*
X181167676Y-92509771D01*
X181096027Y-92682748D01*
X181096025Y-92682756D01*
X181059500Y-92866379D01*
X167720499Y-92866379D01*
X167683973Y-92682749D01*
X167612322Y-92509769D01*
X167612321Y-92509768D01*
X167612318Y-92509762D01*
X167508302Y-92354092D01*
X167508299Y-92354088D01*
X167375911Y-92221700D01*
X167375907Y-92221697D01*
X167220237Y-92117681D01*
X167220228Y-92117676D01*
X167047251Y-92046027D01*
X167047243Y-92046025D01*
X166863620Y-92009500D01*
X166863616Y-92009500D01*
X166676384Y-92009500D01*
X166676379Y-92009500D01*
X166492756Y-92046025D01*
X166492748Y-92046027D01*
X166319771Y-92117676D01*
X166319762Y-92117681D01*
X166164092Y-92221697D01*
X166164088Y-92221700D01*
X166031700Y-92354088D01*
X166031697Y-92354092D01*
X165927681Y-92509762D01*
X165927676Y-92509771D01*
X165856027Y-92682748D01*
X165856025Y-92682756D01*
X165819500Y-92866379D01*
X147775500Y-92866379D01*
X147775500Y-90230177D01*
X147766768Y-90186282D01*
X147766767Y-90186281D01*
X147766767Y-90186278D01*
X147733504Y-90136496D01*
X147685717Y-90104566D01*
X147683724Y-90103234D01*
X147683717Y-90103231D01*
X147639822Y-90094500D01*
X147639820Y-90094500D01*
X144760180Y-90094500D01*
X144760178Y-90094500D01*
X144716282Y-90103231D01*
X144716275Y-90103234D01*
X144666496Y-90136495D01*
X144666495Y-90136496D01*
X144633234Y-90186275D01*
X144633231Y-90186282D01*
X144624500Y-90230177D01*
X144624500Y-90230180D01*
X144624500Y-93109820D01*
X144624500Y-93109822D01*
X144624499Y-93109822D01*
X125850500Y-93109822D01*
X125850500Y-90042014D01*
X130177500Y-90042014D01*
X130177500Y-90277985D01*
X130208299Y-90511914D01*
X130269370Y-90739837D01*
X130359660Y-90957819D01*
X130359665Y-90957828D01*
X130477641Y-91162166D01*
X130477645Y-91162172D01*
X130540221Y-91243723D01*
X131376458Y-90407487D01*
X131401478Y-90467890D01*
X131472612Y-90574351D01*
X131563149Y-90664888D01*
X131669610Y-90736022D01*
X131730011Y-90761041D01*
X130893775Y-91597277D01*
X130975327Y-91659854D01*
X130975328Y-91659855D01*
X131179671Y-91777834D01*
X131179680Y-91777839D01*
X131397663Y-91868129D01*
X131397661Y-91868129D01*
X131625585Y-91929200D01*
X131859514Y-91959999D01*
X131859529Y-91960000D01*
X132095471Y-91960000D01*
X132095485Y-91959999D01*
X132329414Y-91929200D01*
X132557337Y-91868129D01*
X132775319Y-91777839D01*
X132775328Y-91777834D01*
X132979681Y-91659850D01*
X133061223Y-91597279D01*
X133061223Y-91597276D01*
X132224987Y-90761041D01*
X132285390Y-90736022D01*
X132391851Y-90664888D01*
X132482388Y-90574351D01*
X132553522Y-90467890D01*
X132578541Y-90407488D01*
X133414776Y-91243723D01*
X133414779Y-91243723D01*
X133477350Y-91162181D01*
X133595334Y-90957828D01*
X133595339Y-90957819D01*
X133685629Y-90739837D01*
X133746700Y-90511914D01*
X133777499Y-90277985D01*
X133777500Y-90277971D01*
X133777500Y-90045999D01*
X154624500Y-90045999D01*
X154624500Y-90294000D01*
X154663293Y-90538927D01*
X154663294Y-90538931D01*
X154739927Y-90774782D01*
X154852511Y-90995742D01*
X154998276Y-91196370D01*
X155173630Y-91371724D01*
X155374258Y-91517489D01*
X155595218Y-91630073D01*
X155831069Y-91706706D01*
X155922920Y-91721253D01*
X156076000Y-91745500D01*
X156076005Y-91745500D01*
X156324000Y-91745500D01*
X156460070Y-91723947D01*
X156568931Y-91706706D01*
X156804782Y-91630073D01*
X157025742Y-91517489D01*
X157226370Y-91371724D01*
X157401724Y-91196370D01*
X157547489Y-90995742D01*
X157660073Y-90774782D01*
X157736706Y-90538931D01*
X157754714Y-90425229D01*
X157770371Y-90326379D01*
X165819500Y-90326379D01*
X165819500Y-90513620D01*
X165856025Y-90697243D01*
X165856027Y-90697251D01*
X165927676Y-90870228D01*
X165927681Y-90870237D01*
X166031697Y-91025907D01*
X166031700Y-91025911D01*
X166164088Y-91158299D01*
X166164092Y-91158302D01*
X166319762Y-91262318D01*
X166319768Y-91262321D01*
X166319769Y-91262322D01*
X166492749Y-91333973D01*
X166673870Y-91370000D01*
X166676379Y-91370499D01*
X166676383Y-91370500D01*
X166676384Y-91370500D01*
X166863617Y-91370500D01*
X166863618Y-91370499D01*
X167047251Y-91333973D01*
X167220231Y-91262322D01*
X167375908Y-91158302D01*
X167508302Y-91025908D01*
X167612322Y-90870231D01*
X167683973Y-90697251D01*
X167720500Y-90513616D01*
X167720500Y-90326384D01*
X167720499Y-90326379D01*
X181059500Y-90326379D01*
X181059500Y-90513620D01*
X181096025Y-90697243D01*
X181096027Y-90697251D01*
X181167676Y-90870228D01*
X181167681Y-90870237D01*
X181271697Y-91025907D01*
X181271700Y-91025911D01*
X181404088Y-91158299D01*
X181404092Y-91158302D01*
X181559762Y-91262318D01*
X181559768Y-91262321D01*
X181559769Y-91262322D01*
X181732749Y-91333973D01*
X181913870Y-91370000D01*
X181916379Y-91370499D01*
X181916383Y-91370500D01*
X181916384Y-91370500D01*
X182103617Y-91370500D01*
X182103618Y-91370499D01*
X182287251Y-91333973D01*
X182460231Y-91262322D01*
X182615908Y-91158302D01*
X182748302Y-91025908D01*
X182852322Y-90870231D01*
X182923973Y-90697251D01*
X182960500Y-90513616D01*
X182960500Y-90326384D01*
X182923973Y-90142749D01*
X182881411Y-90039995D01*
X195792300Y-90039995D01*
X195792300Y-90200005D01*
X195833714Y-90354564D01*
X195833715Y-90354565D01*
X195833715Y-90354566D01*
X195913716Y-90493133D01*
X195913718Y-90493136D01*
X195913719Y-90493137D01*
X196026863Y-90606281D01*
X196026864Y-90606282D01*
X196026866Y-90606283D01*
X196096149Y-90646283D01*
X196165436Y-90686286D01*
X196319995Y-90727700D01*
X196319997Y-90727700D01*
X196480002Y-90727700D01*
X196480005Y-90727700D01*
X196634564Y-90686286D01*
X196773137Y-90606281D01*
X196886281Y-90493137D01*
X196966286Y-90354564D01*
X197007700Y-90200005D01*
X197007700Y-90039995D01*
X196966286Y-89885436D01*
X196942287Y-89843868D01*
X196911183Y-89789995D01*
X212792300Y-89789995D01*
X212792300Y-89950005D01*
X212833714Y-90104564D01*
X212833715Y-90104565D01*
X212833715Y-90104566D01*
X212913716Y-90243133D01*
X212913718Y-90243136D01*
X212913719Y-90243137D01*
X213026863Y-90356281D01*
X213165436Y-90436286D01*
X213319995Y-90477700D01*
X213319997Y-90477700D01*
X213480002Y-90477700D01*
X213480005Y-90477700D01*
X213634564Y-90436286D01*
X213773137Y-90356281D01*
X213818727Y-90310691D01*
X235949500Y-90310691D01*
X235949500Y-90429309D01*
X235980201Y-90543886D01*
X236039511Y-90646613D01*
X236123387Y-90730489D01*
X236226114Y-90789799D01*
X236340691Y-90820500D01*
X236340694Y-90820500D01*
X236459306Y-90820500D01*
X236459309Y-90820500D01*
X236573886Y-90789799D01*
X236676613Y-90730489D01*
X236760489Y-90646613D01*
X236819799Y-90543886D01*
X236850500Y-90429309D01*
X236850500Y-90310691D01*
X236819799Y-90196114D01*
X236760489Y-90093387D01*
X236676613Y-90009511D01*
X236573886Y-89950201D01*
X236459309Y-89919500D01*
X236340691Y-89919500D01*
X236226114Y-89950201D01*
X236226112Y-89950201D01*
X236226112Y-89950202D01*
X236123387Y-90009511D01*
X236123384Y-90009513D01*
X236039513Y-90093384D01*
X236039511Y-90093387D01*
X235985878Y-90186282D01*
X235980201Y-90196114D01*
X235949500Y-90310691D01*
X213818727Y-90310691D01*
X213886281Y-90243137D01*
X213966286Y-90104564D01*
X214007700Y-89950005D01*
X214007700Y-89870000D01*
X246374016Y-89870000D01*
X247415440Y-89870000D01*
X247384755Y-89923147D01*
X247350000Y-90052857D01*
X247350000Y-90187143D01*
X247384755Y-90316853D01*
X247415440Y-90370000D01*
X246374016Y-90370000D01*
X246380781Y-90412716D01*
X246441581Y-90599837D01*
X246530904Y-90775143D01*
X246646555Y-90934321D01*
X246785678Y-91073444D01*
X246944856Y-91189095D01*
X247120164Y-91278418D01*
X247307294Y-91339221D01*
X247501618Y-91370000D01*
X247610000Y-91370000D01*
X247610000Y-90564560D01*
X247663147Y-90595245D01*
X247792857Y-90630000D01*
X247927143Y-90630000D01*
X248056853Y-90595245D01*
X248110000Y-90564560D01*
X248110000Y-91370000D01*
X248218382Y-91370000D01*
X248412705Y-91339221D01*
X248599835Y-91278418D01*
X248775143Y-91189095D01*
X248934321Y-91073444D01*
X249073444Y-90934321D01*
X249189095Y-90775143D01*
X249278418Y-90599837D01*
X249339218Y-90412716D01*
X249345984Y-90370000D01*
X248304560Y-90370000D01*
X248335245Y-90316853D01*
X248370000Y-90187143D01*
X248370000Y-90052857D01*
X248335245Y-89923147D01*
X248304560Y-89870000D01*
X249345984Y-89870000D01*
X249339218Y-89827283D01*
X249278418Y-89640162D01*
X249189095Y-89464856D01*
X249073444Y-89305678D01*
X248934321Y-89166555D01*
X248775143Y-89050904D01*
X248599835Y-88961581D01*
X248412705Y-88900778D01*
X248218382Y-88870000D01*
X248110000Y-88870000D01*
X248110000Y-89675439D01*
X248056853Y-89644755D01*
X247927143Y-89610000D01*
X247792857Y-89610000D01*
X247663147Y-89644755D01*
X247610000Y-89675439D01*
X247610000Y-88870000D01*
X247501618Y-88870000D01*
X247307294Y-88900778D01*
X247120164Y-88961581D01*
X246944856Y-89050904D01*
X246785678Y-89166555D01*
X246646555Y-89305678D01*
X246530904Y-89464856D01*
X246441581Y-89640162D01*
X246380781Y-89827283D01*
X246374016Y-89870000D01*
X214007700Y-89870000D01*
X214007700Y-89789995D01*
X213966286Y-89635436D01*
X213925744Y-89565215D01*
X213886283Y-89496866D01*
X213886279Y-89496861D01*
X213773138Y-89383720D01*
X213773133Y-89383716D01*
X213634566Y-89303715D01*
X213634565Y-89303714D01*
X213634564Y-89303714D01*
X213480005Y-89262300D01*
X213319995Y-89262300D01*
X213165436Y-89303714D01*
X213165434Y-89303715D01*
X213165433Y-89303715D01*
X213026866Y-89383716D01*
X213026861Y-89383720D01*
X212913720Y-89496861D01*
X212913716Y-89496866D01*
X212833715Y-89635433D01*
X212833715Y-89635434D01*
X212833714Y-89635436D01*
X212792300Y-89789995D01*
X196911183Y-89789995D01*
X196886283Y-89746866D01*
X196886279Y-89746861D01*
X196773138Y-89633720D01*
X196773133Y-89633716D01*
X196634566Y-89553715D01*
X196634565Y-89553714D01*
X196634564Y-89553714D01*
X196480005Y-89512300D01*
X196319995Y-89512300D01*
X196165436Y-89553714D01*
X196165434Y-89553715D01*
X196165433Y-89553715D01*
X196026866Y-89633716D01*
X196026861Y-89633720D01*
X195913720Y-89746861D01*
X195913716Y-89746866D01*
X195833715Y-89885433D01*
X195833715Y-89885434D01*
X195833714Y-89885436D01*
X195792300Y-90039995D01*
X182881411Y-90039995D01*
X182852322Y-89969769D01*
X182852321Y-89969768D01*
X182852318Y-89969762D01*
X182748302Y-89814092D01*
X182748299Y-89814088D01*
X182615911Y-89681700D01*
X182615907Y-89681697D01*
X182460237Y-89577681D01*
X182460228Y-89577676D01*
X182287251Y-89506027D01*
X182287243Y-89506025D01*
X182103620Y-89469500D01*
X182103616Y-89469500D01*
X181916384Y-89469500D01*
X181916379Y-89469500D01*
X181732756Y-89506025D01*
X181732748Y-89506027D01*
X181559771Y-89577676D01*
X181559762Y-89577681D01*
X181404092Y-89681697D01*
X181404088Y-89681700D01*
X181271700Y-89814088D01*
X181271697Y-89814092D01*
X181167681Y-89969762D01*
X181167676Y-89969771D01*
X181096027Y-90142748D01*
X181096025Y-90142756D01*
X181059500Y-90326379D01*
X167720499Y-90326379D01*
X167683973Y-90142749D01*
X167612322Y-89969769D01*
X167612321Y-89969768D01*
X167612318Y-89969762D01*
X167508302Y-89814092D01*
X167508299Y-89814088D01*
X167375911Y-89681700D01*
X167375907Y-89681697D01*
X167220237Y-89577681D01*
X167220228Y-89577676D01*
X167047251Y-89506027D01*
X167047243Y-89506025D01*
X166863620Y-89469500D01*
X166863616Y-89469500D01*
X166676384Y-89469500D01*
X166676379Y-89469500D01*
X166492756Y-89506025D01*
X166492748Y-89506027D01*
X166319771Y-89577676D01*
X166319762Y-89577681D01*
X166164092Y-89681697D01*
X166164088Y-89681700D01*
X166031700Y-89814088D01*
X166031697Y-89814092D01*
X165927681Y-89969762D01*
X165927676Y-89969771D01*
X165856027Y-90142748D01*
X165856025Y-90142756D01*
X165819500Y-90326379D01*
X157770371Y-90326379D01*
X157774408Y-90300894D01*
X157774408Y-90300892D01*
X157775500Y-90293997D01*
X157775500Y-90045999D01*
X157744790Y-89852110D01*
X157736706Y-89801069D01*
X157660073Y-89565218D01*
X157547489Y-89344258D01*
X157401724Y-89143630D01*
X157226370Y-88968276D01*
X157025742Y-88822511D01*
X156829101Y-88722318D01*
X156804784Y-88709928D01*
X156804783Y-88709927D01*
X156804782Y-88709927D01*
X156568931Y-88633294D01*
X156568929Y-88633293D01*
X156568927Y-88633293D01*
X156324000Y-88594500D01*
X156323995Y-88594500D01*
X156076005Y-88594500D01*
X156076000Y-88594500D01*
X155831072Y-88633293D01*
X155595215Y-88709928D01*
X155374257Y-88822511D01*
X155308895Y-88870000D01*
X155173630Y-88968276D01*
X155173628Y-88968278D01*
X155173627Y-88968278D01*
X154998278Y-89143627D01*
X154998278Y-89143628D01*
X154998276Y-89143630D01*
X154987961Y-89157828D01*
X154852511Y-89344257D01*
X154739928Y-89565215D01*
X154739927Y-89565217D01*
X154739927Y-89565218D01*
X154735878Y-89577681D01*
X154663293Y-89801072D01*
X154624500Y-90045999D01*
X133777500Y-90045999D01*
X133777500Y-90042028D01*
X133777499Y-90042014D01*
X133746700Y-89808085D01*
X133685629Y-89580162D01*
X133595339Y-89362180D01*
X133595334Y-89362171D01*
X133477355Y-89157828D01*
X133477354Y-89157827D01*
X133414777Y-89076275D01*
X132578541Y-89912511D01*
X132553522Y-89852110D01*
X132482388Y-89745649D01*
X132391851Y-89655112D01*
X132285390Y-89583978D01*
X132224988Y-89558958D01*
X133061223Y-88722721D01*
X132979672Y-88660145D01*
X132979671Y-88660144D01*
X132775328Y-88542165D01*
X132775319Y-88542160D01*
X132557336Y-88451870D01*
X132557338Y-88451870D01*
X132329414Y-88390799D01*
X132095485Y-88360000D01*
X131859514Y-88360000D01*
X131625585Y-88390799D01*
X131397662Y-88451870D01*
X131179680Y-88542160D01*
X131179671Y-88542165D01*
X130975328Y-88660144D01*
X130975318Y-88660150D01*
X130893775Y-88722720D01*
X130893775Y-88722721D01*
X131730012Y-89558958D01*
X131669610Y-89583978D01*
X131563149Y-89655112D01*
X131472612Y-89745649D01*
X131401478Y-89852110D01*
X131376458Y-89912511D01*
X130540221Y-89076275D01*
X130540220Y-89076275D01*
X130477650Y-89157818D01*
X130477644Y-89157828D01*
X130359665Y-89362171D01*
X130359660Y-89362180D01*
X130269370Y-89580162D01*
X130208299Y-89808085D01*
X130177500Y-90042014D01*
X125850500Y-90042014D01*
X125850500Y-87786379D01*
X165819500Y-87786379D01*
X165819500Y-87973620D01*
X165856025Y-88157243D01*
X165856027Y-88157251D01*
X165927676Y-88330228D01*
X165927681Y-88330237D01*
X166031697Y-88485907D01*
X166031700Y-88485911D01*
X166164088Y-88618299D01*
X166164092Y-88618302D01*
X166319762Y-88722318D01*
X166319771Y-88722323D01*
X166339483Y-88730488D01*
X166492749Y-88793973D01*
X166676379Y-88830499D01*
X166676383Y-88830500D01*
X166676384Y-88830500D01*
X166863617Y-88830500D01*
X166863618Y-88830499D01*
X167047251Y-88793973D01*
X167220231Y-88722322D01*
X167375908Y-88618302D01*
X167508302Y-88485908D01*
X167612322Y-88330231D01*
X167683973Y-88157251D01*
X167720500Y-87973616D01*
X167720500Y-87786384D01*
X167720499Y-87786379D01*
X181059500Y-87786379D01*
X181059500Y-87973620D01*
X181096025Y-88157243D01*
X181096027Y-88157251D01*
X181167676Y-88330228D01*
X181167681Y-88330237D01*
X181271697Y-88485907D01*
X181271700Y-88485911D01*
X181404088Y-88618299D01*
X181404092Y-88618302D01*
X181559762Y-88722318D01*
X181559771Y-88722323D01*
X181579483Y-88730488D01*
X181732749Y-88793973D01*
X181916379Y-88830499D01*
X181916383Y-88830500D01*
X181916384Y-88830500D01*
X182103617Y-88830500D01*
X182103618Y-88830499D01*
X182287251Y-88793973D01*
X182460231Y-88722322D01*
X182615908Y-88618302D01*
X182706520Y-88527690D01*
X187982501Y-88527690D01*
X187982501Y-88646308D01*
X188013202Y-88760885D01*
X188072512Y-88863612D01*
X188156388Y-88947488D01*
X188259115Y-89006798D01*
X188373692Y-89037499D01*
X188373695Y-89037499D01*
X188492307Y-89037499D01*
X188492310Y-89037499D01*
X188606887Y-89006798D01*
X188709614Y-88947488D01*
X188793490Y-88863612D01*
X188852800Y-88760885D01*
X188883501Y-88646308D01*
X188883501Y-88527690D01*
X188852800Y-88413113D01*
X188793490Y-88310386D01*
X188773099Y-88289995D01*
X217292300Y-88289995D01*
X217292300Y-88450005D01*
X217333714Y-88604564D01*
X217333715Y-88604565D01*
X217333715Y-88604566D01*
X217413716Y-88743133D01*
X217413718Y-88743136D01*
X217413719Y-88743137D01*
X217526863Y-88856281D01*
X217526864Y-88856282D01*
X217526866Y-88856283D01*
X217539564Y-88863614D01*
X217665436Y-88936286D01*
X217819995Y-88977700D01*
X217819997Y-88977700D01*
X217980002Y-88977700D01*
X217980005Y-88977700D01*
X218134564Y-88936286D01*
X218273137Y-88856281D01*
X218339423Y-88789995D01*
X225792300Y-88789995D01*
X225792300Y-88950005D01*
X225833714Y-89104564D01*
X225833715Y-89104565D01*
X225833715Y-89104566D01*
X225913716Y-89243133D01*
X225913718Y-89243136D01*
X225913719Y-89243137D01*
X226026863Y-89356281D01*
X226026864Y-89356282D01*
X226026866Y-89356283D01*
X226037080Y-89362180D01*
X226165436Y-89436286D01*
X226319995Y-89477700D01*
X226319997Y-89477700D01*
X226480002Y-89477700D01*
X226480005Y-89477700D01*
X226634564Y-89436286D01*
X226773137Y-89356281D01*
X226886281Y-89243137D01*
X226966286Y-89104564D01*
X227007700Y-88950005D01*
X227007700Y-88789995D01*
X226966286Y-88635436D01*
X226886281Y-88496863D01*
X226773137Y-88383719D01*
X226773136Y-88383718D01*
X226773133Y-88383716D01*
X226646649Y-88310691D01*
X233949500Y-88310691D01*
X233949500Y-88429309D01*
X233980201Y-88543886D01*
X234039511Y-88646613D01*
X234123387Y-88730489D01*
X234226114Y-88789799D01*
X234340691Y-88820500D01*
X234340694Y-88820500D01*
X234459306Y-88820500D01*
X234459309Y-88820500D01*
X234573886Y-88789799D01*
X234676613Y-88730489D01*
X234760489Y-88646613D01*
X234819799Y-88543886D01*
X234850500Y-88429309D01*
X234850500Y-88310691D01*
X234819799Y-88196114D01*
X234760489Y-88093387D01*
X234676613Y-88009511D01*
X234573886Y-87950201D01*
X234459309Y-87919500D01*
X234340691Y-87919500D01*
X234226114Y-87950201D01*
X234226112Y-87950201D01*
X234226112Y-87950202D01*
X234123387Y-88009511D01*
X234123384Y-88009513D01*
X234039513Y-88093384D01*
X234039511Y-88093387D01*
X234015236Y-88135433D01*
X233980201Y-88196114D01*
X233949500Y-88310691D01*
X226646649Y-88310691D01*
X226634566Y-88303715D01*
X226634565Y-88303714D01*
X226634564Y-88303714D01*
X226480005Y-88262300D01*
X226319995Y-88262300D01*
X226165436Y-88303714D01*
X226165434Y-88303715D01*
X226165433Y-88303715D01*
X226026866Y-88383716D01*
X226026861Y-88383720D01*
X225913720Y-88496861D01*
X225913716Y-88496866D01*
X225833715Y-88635433D01*
X225833715Y-88635434D01*
X225833714Y-88635436D01*
X225792300Y-88789995D01*
X218339423Y-88789995D01*
X218386281Y-88743137D01*
X218399718Y-88719864D01*
X218466283Y-88604570D01*
X218466283Y-88604568D01*
X218466286Y-88604564D01*
X218507700Y-88450005D01*
X218507700Y-88289995D01*
X218466286Y-88135436D01*
X218426283Y-88066149D01*
X218386283Y-87996866D01*
X218386279Y-87996861D01*
X218273138Y-87883720D01*
X218273133Y-87883716D01*
X218134566Y-87803715D01*
X218134565Y-87803714D01*
X218134564Y-87803714D01*
X217980005Y-87762300D01*
X217819995Y-87762300D01*
X217665436Y-87803714D01*
X217665434Y-87803715D01*
X217665433Y-87803715D01*
X217526866Y-87883716D01*
X217526861Y-87883720D01*
X217413720Y-87996861D01*
X217413716Y-87996866D01*
X217333715Y-88135433D01*
X217333715Y-88135434D01*
X217333714Y-88135436D01*
X217292300Y-88289995D01*
X188773099Y-88289995D01*
X188709614Y-88226510D01*
X188606887Y-88167200D01*
X188492310Y-88136499D01*
X188373692Y-88136499D01*
X188259115Y-88167200D01*
X188259113Y-88167200D01*
X188259113Y-88167201D01*
X188156388Y-88226510D01*
X188156385Y-88226512D01*
X188072514Y-88310383D01*
X188072512Y-88310386D01*
X188030175Y-88383716D01*
X188013202Y-88413113D01*
X187982501Y-88527690D01*
X182706520Y-88527690D01*
X182748302Y-88485908D01*
X182852322Y-88330231D01*
X182923973Y-88157251D01*
X182960500Y-87973616D01*
X182960500Y-87786384D01*
X182923973Y-87602749D01*
X182852322Y-87429769D01*
X182852321Y-87429768D01*
X182852318Y-87429762D01*
X182748302Y-87274092D01*
X182748299Y-87274088D01*
X182615911Y-87141700D01*
X182615907Y-87141697D01*
X182460237Y-87037681D01*
X182460228Y-87037676D01*
X182448410Y-87032781D01*
X245014500Y-87032781D01*
X245014500Y-87207218D01*
X245048527Y-87378283D01*
X245048529Y-87378291D01*
X245115278Y-87539439D01*
X245115283Y-87539448D01*
X245212186Y-87684473D01*
X245212189Y-87684477D01*
X245335522Y-87807810D01*
X245335526Y-87807813D01*
X245480551Y-87904716D01*
X245480557Y-87904719D01*
X245480558Y-87904720D01*
X245641709Y-87971471D01*
X245769380Y-87996866D01*
X245812781Y-88005499D01*
X245812785Y-88005500D01*
X245812786Y-88005500D01*
X245987215Y-88005500D01*
X245987216Y-88005499D01*
X246158291Y-87971471D01*
X246319442Y-87904720D01*
X246464474Y-87807813D01*
X246587813Y-87684474D01*
X246684720Y-87539442D01*
X246751471Y-87378291D01*
X246785500Y-87207214D01*
X246785500Y-87032786D01*
X246751471Y-86861709D01*
X246684720Y-86700558D01*
X246684719Y-86700557D01*
X246684716Y-86700551D01*
X246587813Y-86555526D01*
X246587810Y-86555522D01*
X246464477Y-86432189D01*
X246464473Y-86432186D01*
X246319448Y-86335283D01*
X246319439Y-86335278D01*
X246158291Y-86268529D01*
X246158283Y-86268527D01*
X245987218Y-86234500D01*
X245987214Y-86234500D01*
X245812786Y-86234500D01*
X245812781Y-86234500D01*
X245641716Y-86268527D01*
X245641708Y-86268529D01*
X245480560Y-86335278D01*
X245480551Y-86335283D01*
X245335526Y-86432186D01*
X245335522Y-86432189D01*
X245212189Y-86555522D01*
X245212186Y-86555526D01*
X245115283Y-86700551D01*
X245115278Y-86700560D01*
X245048529Y-86861708D01*
X245048527Y-86861716D01*
X245014500Y-87032781D01*
X182448410Y-87032781D01*
X182287251Y-86966027D01*
X182287243Y-86966025D01*
X182103620Y-86929500D01*
X182103616Y-86929500D01*
X181916384Y-86929500D01*
X181916379Y-86929500D01*
X181732756Y-86966025D01*
X181732748Y-86966027D01*
X181559771Y-87037676D01*
X181559762Y-87037681D01*
X181404092Y-87141697D01*
X181404088Y-87141700D01*
X181271700Y-87274088D01*
X181271697Y-87274092D01*
X181167681Y-87429762D01*
X181167676Y-87429771D01*
X181096027Y-87602748D01*
X181096025Y-87602756D01*
X181059500Y-87786379D01*
X167720499Y-87786379D01*
X167683973Y-87602749D01*
X167612322Y-87429769D01*
X167612321Y-87429768D01*
X167612318Y-87429762D01*
X167508302Y-87274092D01*
X167508299Y-87274088D01*
X167375911Y-87141700D01*
X167375907Y-87141697D01*
X167220237Y-87037681D01*
X167220228Y-87037676D01*
X167047251Y-86966027D01*
X167047243Y-86966025D01*
X166863620Y-86929500D01*
X166863616Y-86929500D01*
X166676384Y-86929500D01*
X166676379Y-86929500D01*
X166492756Y-86966025D01*
X166492748Y-86966027D01*
X166319771Y-87037676D01*
X166319762Y-87037681D01*
X166164092Y-87141697D01*
X166164088Y-87141700D01*
X166031700Y-87274088D01*
X166031697Y-87274092D01*
X165927681Y-87429762D01*
X165927676Y-87429771D01*
X165856027Y-87602748D01*
X165856025Y-87602756D01*
X165819500Y-87786379D01*
X125850500Y-87786379D01*
X125850500Y-84962014D01*
X130177500Y-84962014D01*
X130177500Y-85197985D01*
X130208299Y-85431914D01*
X130269370Y-85659837D01*
X130359660Y-85877819D01*
X130359665Y-85877828D01*
X130477641Y-86082166D01*
X130477645Y-86082172D01*
X130540221Y-86163723D01*
X131376458Y-85327487D01*
X131401478Y-85387890D01*
X131472612Y-85494351D01*
X131563149Y-85584888D01*
X131669610Y-85656022D01*
X131730011Y-85681041D01*
X130893775Y-86517277D01*
X130975327Y-86579854D01*
X130975328Y-86579855D01*
X131179671Y-86697834D01*
X131179680Y-86697839D01*
X131397663Y-86788129D01*
X131397661Y-86788129D01*
X131625585Y-86849200D01*
X131859514Y-86879999D01*
X131859529Y-86880000D01*
X132095471Y-86880000D01*
X132095485Y-86879999D01*
X132329414Y-86849200D01*
X132557337Y-86788129D01*
X132775319Y-86697839D01*
X132775328Y-86697834D01*
X132979681Y-86579850D01*
X133061223Y-86517279D01*
X133061223Y-86517276D01*
X132224987Y-85681041D01*
X132285390Y-85656022D01*
X132391851Y-85584888D01*
X132482388Y-85494351D01*
X132553522Y-85387890D01*
X132578541Y-85327488D01*
X133414776Y-86163723D01*
X133414779Y-86163723D01*
X133477350Y-86082181D01*
X133595334Y-85877828D01*
X133595339Y-85877819D01*
X133685629Y-85659837D01*
X133746700Y-85431914D01*
X133777499Y-85197985D01*
X133777500Y-85197971D01*
X133777500Y-84962028D01*
X133777499Y-84962014D01*
X133746700Y-84728085D01*
X133685629Y-84500162D01*
X133595339Y-84282180D01*
X133595334Y-84282171D01*
X133477355Y-84077828D01*
X133477354Y-84077827D01*
X133414777Y-83996275D01*
X132578541Y-84832511D01*
X132553522Y-84772110D01*
X132482388Y-84665649D01*
X132391851Y-84575112D01*
X132285390Y-84503978D01*
X132224988Y-84478958D01*
X133061223Y-83642721D01*
X133057037Y-83639509D01*
X132979672Y-83580145D01*
X132979671Y-83580144D01*
X132920531Y-83545999D01*
X144624500Y-83545999D01*
X144624500Y-83794000D01*
X144656538Y-83996275D01*
X144663294Y-84038931D01*
X144739927Y-84274782D01*
X144852511Y-84495742D01*
X144998276Y-84696370D01*
X145173630Y-84871724D01*
X145374258Y-85017489D01*
X145595218Y-85130073D01*
X145831069Y-85206706D01*
X145922920Y-85221253D01*
X146076000Y-85245500D01*
X146076005Y-85245500D01*
X146324000Y-85245500D01*
X146460070Y-85223947D01*
X146568931Y-85206706D01*
X146804782Y-85130073D01*
X146969788Y-85045999D01*
X154624500Y-85045999D01*
X154624500Y-85294000D01*
X154646614Y-85433620D01*
X154663294Y-85538931D01*
X154739927Y-85774782D01*
X154852511Y-85995742D01*
X154998276Y-86196370D01*
X155173630Y-86371724D01*
X155374258Y-86517489D01*
X155595218Y-86630073D01*
X155831069Y-86706706D01*
X155922920Y-86721253D01*
X156076000Y-86745500D01*
X156076005Y-86745500D01*
X156324000Y-86745500D01*
X156460070Y-86723947D01*
X156568931Y-86706706D01*
X156804782Y-86630073D01*
X157025742Y-86517489D01*
X157226370Y-86371724D01*
X157401724Y-86196370D01*
X157547489Y-85995742D01*
X157660073Y-85774782D01*
X157736706Y-85538931D01*
X157760629Y-85387890D01*
X157775500Y-85294000D01*
X157775500Y-85246379D01*
X165819500Y-85246379D01*
X165819500Y-85433620D01*
X165856025Y-85617243D01*
X165856027Y-85617251D01*
X165927676Y-85790228D01*
X165927681Y-85790237D01*
X166031697Y-85945907D01*
X166031700Y-85945911D01*
X166164088Y-86078299D01*
X166164092Y-86078302D01*
X166319762Y-86182318D01*
X166319771Y-86182323D01*
X166358956Y-86198554D01*
X166492749Y-86253973D01*
X166673845Y-86289995D01*
X166676379Y-86290499D01*
X166676383Y-86290500D01*
X166676384Y-86290500D01*
X166863617Y-86290500D01*
X166863618Y-86290499D01*
X167047251Y-86253973D01*
X167220231Y-86182322D01*
X167375908Y-86078302D01*
X167508302Y-85945908D01*
X167612322Y-85790231D01*
X167683973Y-85617251D01*
X167720500Y-85433616D01*
X167720500Y-85246384D01*
X167720499Y-85246379D01*
X181059500Y-85246379D01*
X181059500Y-85433620D01*
X181096025Y-85617243D01*
X181096027Y-85617251D01*
X181167676Y-85790228D01*
X181167681Y-85790237D01*
X181271697Y-85945907D01*
X181271700Y-85945911D01*
X181404088Y-86078299D01*
X181404092Y-86078302D01*
X181559762Y-86182318D01*
X181559771Y-86182323D01*
X181598956Y-86198554D01*
X181732749Y-86253973D01*
X181913845Y-86289995D01*
X181916379Y-86290499D01*
X181916383Y-86290500D01*
X181916384Y-86290500D01*
X182103617Y-86290500D01*
X182103618Y-86290499D01*
X182106152Y-86289995D01*
X200042300Y-86289995D01*
X200042300Y-86450005D01*
X200083714Y-86604564D01*
X200083715Y-86604565D01*
X200083715Y-86604566D01*
X200163716Y-86743133D01*
X200163718Y-86743136D01*
X200163719Y-86743137D01*
X200276863Y-86856281D01*
X200276864Y-86856282D01*
X200276866Y-86856283D01*
X200346149Y-86896283D01*
X200415436Y-86936286D01*
X200569995Y-86977700D01*
X200569997Y-86977700D01*
X200730002Y-86977700D01*
X200730005Y-86977700D01*
X200884564Y-86936286D01*
X201023137Y-86856281D01*
X201136281Y-86743137D01*
X201216286Y-86604564D01*
X201257700Y-86450005D01*
X201257700Y-86289995D01*
X201216286Y-86135436D01*
X201136281Y-85996863D01*
X201023137Y-85883719D01*
X201023136Y-85883718D01*
X201023133Y-85883716D01*
X200884566Y-85803715D01*
X200884565Y-85803714D01*
X200884564Y-85803714D01*
X200730005Y-85762300D01*
X200569995Y-85762300D01*
X200415436Y-85803714D01*
X200415434Y-85803715D01*
X200415433Y-85803715D01*
X200276866Y-85883716D01*
X200276861Y-85883720D01*
X200163720Y-85996861D01*
X200163716Y-85996866D01*
X200083715Y-86135433D01*
X200083715Y-86135434D01*
X200083714Y-86135436D01*
X200042300Y-86289995D01*
X182106152Y-86289995D01*
X182287251Y-86253973D01*
X182460231Y-86182322D01*
X182460238Y-86182317D01*
X182460242Y-86182315D01*
X182465550Y-86178768D01*
X182465554Y-86178766D01*
X182543187Y-86126892D01*
X182615908Y-86078302D01*
X182748302Y-85945908D01*
X182852322Y-85790231D01*
X182923973Y-85617251D01*
X182960500Y-85433616D01*
X182960500Y-85246384D01*
X182923973Y-85062749D01*
X182852322Y-84889769D01*
X182852321Y-84889768D01*
X182852318Y-84889762D01*
X182748302Y-84734092D01*
X182748299Y-84734088D01*
X182615911Y-84601700D01*
X182615907Y-84601697D01*
X182460237Y-84497681D01*
X182460228Y-84497676D01*
X182287251Y-84426027D01*
X182287243Y-84426025D01*
X182103620Y-84389500D01*
X182103616Y-84389500D01*
X181916384Y-84389500D01*
X181916379Y-84389500D01*
X181732756Y-84426025D01*
X181732748Y-84426027D01*
X181559771Y-84497676D01*
X181559762Y-84497681D01*
X181404092Y-84601697D01*
X181404088Y-84601700D01*
X181271700Y-84734088D01*
X181271697Y-84734092D01*
X181167681Y-84889762D01*
X181167676Y-84889771D01*
X181096027Y-85062748D01*
X181096025Y-85062756D01*
X181059500Y-85246379D01*
X167720499Y-85246379D01*
X167683973Y-85062749D01*
X167612322Y-84889769D01*
X167612321Y-84889768D01*
X167612318Y-84889762D01*
X167508302Y-84734092D01*
X167508299Y-84734088D01*
X167375911Y-84601700D01*
X167375907Y-84601697D01*
X167220237Y-84497681D01*
X167220228Y-84497676D01*
X167047251Y-84426027D01*
X167047243Y-84426025D01*
X166863620Y-84389500D01*
X166863616Y-84389500D01*
X166676384Y-84389500D01*
X166676379Y-84389500D01*
X166492756Y-84426025D01*
X166492748Y-84426027D01*
X166319771Y-84497676D01*
X166319762Y-84497681D01*
X166164092Y-84601697D01*
X166164088Y-84601700D01*
X166031700Y-84734088D01*
X166031697Y-84734092D01*
X165927681Y-84889762D01*
X165927676Y-84889771D01*
X165856027Y-85062748D01*
X165856025Y-85062756D01*
X165819500Y-85246379D01*
X157775500Y-85246379D01*
X157775500Y-85045999D01*
X157736706Y-84801072D01*
X157736706Y-84801069D01*
X157660073Y-84565218D01*
X157547489Y-84344258D01*
X157401724Y-84143630D01*
X157226370Y-83968276D01*
X157025742Y-83822511D01*
X156804782Y-83709927D01*
X156568931Y-83633294D01*
X156568929Y-83633293D01*
X156568927Y-83633293D01*
X156324000Y-83594500D01*
X156323995Y-83594500D01*
X156076005Y-83594500D01*
X156076000Y-83594500D01*
X155831072Y-83633293D01*
X155595215Y-83709928D01*
X155374257Y-83822511D01*
X155259792Y-83905675D01*
X155173630Y-83968276D01*
X155173628Y-83968278D01*
X155173627Y-83968278D01*
X154998278Y-84143627D01*
X154998278Y-84143628D01*
X154998276Y-84143630D01*
X154935675Y-84229792D01*
X154852511Y-84344257D01*
X154739928Y-84565215D01*
X154663293Y-84801072D01*
X154624500Y-85045999D01*
X146969788Y-85045999D01*
X147025742Y-85017489D01*
X147226370Y-84871724D01*
X147401724Y-84696370D01*
X147547489Y-84495742D01*
X147660073Y-84274782D01*
X147736706Y-84038931D01*
X147770984Y-83822511D01*
X147775500Y-83794000D01*
X147775500Y-83545999D01*
X147736706Y-83301072D01*
X147736706Y-83301069D01*
X147660073Y-83065218D01*
X147547489Y-82844258D01*
X147447314Y-82706379D01*
X165819500Y-82706379D01*
X165819500Y-82893620D01*
X165856025Y-83077243D01*
X165856027Y-83077251D01*
X165927676Y-83250228D01*
X165927681Y-83250237D01*
X166031697Y-83405907D01*
X166031700Y-83405911D01*
X166164088Y-83538299D01*
X166164092Y-83538302D01*
X166319762Y-83642318D01*
X166319771Y-83642323D01*
X166320732Y-83642721D01*
X166492749Y-83713973D01*
X166676379Y-83750499D01*
X166676383Y-83750500D01*
X166676384Y-83750500D01*
X166863617Y-83750500D01*
X166863618Y-83750499D01*
X167047251Y-83713973D01*
X167220231Y-83642322D01*
X167375908Y-83538302D01*
X167508302Y-83405908D01*
X167612322Y-83250231D01*
X167683973Y-83077251D01*
X167720500Y-82893616D01*
X167720500Y-82706384D01*
X167720499Y-82706379D01*
X181059500Y-82706379D01*
X181059500Y-82893620D01*
X181096025Y-83077243D01*
X181096027Y-83077251D01*
X181167676Y-83250228D01*
X181167681Y-83250237D01*
X181271697Y-83405907D01*
X181271700Y-83405911D01*
X181404088Y-83538299D01*
X181404092Y-83538302D01*
X181559762Y-83642318D01*
X181559771Y-83642323D01*
X181560732Y-83642721D01*
X181732749Y-83713973D01*
X181916379Y-83750499D01*
X181916383Y-83750500D01*
X181916384Y-83750500D01*
X182103617Y-83750500D01*
X182103618Y-83750499D01*
X182287251Y-83713973D01*
X182460231Y-83642322D01*
X182615908Y-83538302D01*
X182748302Y-83405908D01*
X182852322Y-83250231D01*
X182923973Y-83077251D01*
X182960500Y-82893616D01*
X182960500Y-82706384D01*
X182923973Y-82522749D01*
X182852322Y-82349769D01*
X182852317Y-82349762D01*
X182812382Y-82289995D01*
X200042300Y-82289995D01*
X200042300Y-82450005D01*
X200083714Y-82604564D01*
X200083715Y-82604565D01*
X200083715Y-82604566D01*
X200163716Y-82743133D01*
X200163718Y-82743136D01*
X200163719Y-82743137D01*
X200276863Y-82856281D01*
X200415436Y-82936286D01*
X200569995Y-82977700D01*
X200569997Y-82977700D01*
X200730002Y-82977700D01*
X200730005Y-82977700D01*
X200884564Y-82936286D01*
X201023137Y-82856281D01*
X201136281Y-82743137D01*
X201216286Y-82604564D01*
X201257700Y-82450005D01*
X201257700Y-82289995D01*
X201216286Y-82135436D01*
X201136281Y-81996863D01*
X201023137Y-81883719D01*
X201023136Y-81883718D01*
X201023133Y-81883716D01*
X200884566Y-81803715D01*
X200884565Y-81803714D01*
X200884564Y-81803714D01*
X200730005Y-81762300D01*
X200569995Y-81762300D01*
X200415436Y-81803714D01*
X200415434Y-81803715D01*
X200415433Y-81803715D01*
X200276866Y-81883716D01*
X200276861Y-81883720D01*
X200163720Y-81996861D01*
X200163716Y-81996866D01*
X200083715Y-82135433D01*
X200083715Y-82135434D01*
X200083714Y-82135436D01*
X200042300Y-82289995D01*
X182812382Y-82289995D01*
X182748302Y-82194092D01*
X182748299Y-82194088D01*
X182615911Y-82061700D01*
X182615907Y-82061697D01*
X182460237Y-81957681D01*
X182460228Y-81957676D01*
X182287251Y-81886027D01*
X182287243Y-81886025D01*
X182103620Y-81849500D01*
X182103616Y-81849500D01*
X181916384Y-81849500D01*
X181916379Y-81849500D01*
X181732756Y-81886025D01*
X181732748Y-81886027D01*
X181559771Y-81957676D01*
X181559762Y-81957681D01*
X181404092Y-82061697D01*
X181404088Y-82061700D01*
X181271700Y-82194088D01*
X181271697Y-82194092D01*
X181167681Y-82349762D01*
X181167676Y-82349771D01*
X181096027Y-82522748D01*
X181096025Y-82522756D01*
X181059500Y-82706379D01*
X167720499Y-82706379D01*
X167683973Y-82522749D01*
X167612322Y-82349769D01*
X167612319Y-82349764D01*
X167612318Y-82349762D01*
X167508302Y-82194092D01*
X167508299Y-82194088D01*
X167375911Y-82061700D01*
X167375907Y-82061697D01*
X167220237Y-81957681D01*
X167220228Y-81957676D01*
X167047251Y-81886027D01*
X167047243Y-81886025D01*
X166863620Y-81849500D01*
X166863616Y-81849500D01*
X166676384Y-81849500D01*
X166676379Y-81849500D01*
X166492756Y-81886025D01*
X166492748Y-81886027D01*
X166319771Y-81957676D01*
X166319762Y-81957681D01*
X166164092Y-82061697D01*
X166164088Y-82061700D01*
X166031700Y-82194088D01*
X166031697Y-82194092D01*
X165927681Y-82349762D01*
X165927676Y-82349771D01*
X165856027Y-82522748D01*
X165856025Y-82522756D01*
X165819500Y-82706379D01*
X147447314Y-82706379D01*
X147401724Y-82643630D01*
X147226370Y-82468276D01*
X147025742Y-82322511D01*
X146804782Y-82209927D01*
X146568931Y-82133294D01*
X146568929Y-82133293D01*
X146568927Y-82133293D01*
X146324000Y-82094500D01*
X146323995Y-82094500D01*
X146076005Y-82094500D01*
X146076000Y-82094500D01*
X145831072Y-82133293D01*
X145595215Y-82209928D01*
X145374257Y-82322511D01*
X145259792Y-82405675D01*
X145173630Y-82468276D01*
X145173628Y-82468278D01*
X145173627Y-82468278D01*
X144998278Y-82643627D01*
X144998278Y-82643628D01*
X144998276Y-82643630D01*
X144935675Y-82729792D01*
X144852511Y-82844257D01*
X144739928Y-83065215D01*
X144663293Y-83301072D01*
X144624500Y-83545999D01*
X132920531Y-83545999D01*
X132775328Y-83462165D01*
X132775319Y-83462160D01*
X132557336Y-83371870D01*
X132557338Y-83371870D01*
X132329414Y-83310799D01*
X132095485Y-83280000D01*
X131859514Y-83280000D01*
X131625585Y-83310799D01*
X131397662Y-83371870D01*
X131179680Y-83462160D01*
X131179671Y-83462165D01*
X130975328Y-83580144D01*
X130975318Y-83580150D01*
X130893775Y-83642720D01*
X130893775Y-83642721D01*
X131730012Y-84478958D01*
X131669610Y-84503978D01*
X131563149Y-84575112D01*
X131472612Y-84665649D01*
X131401478Y-84772110D01*
X131376458Y-84832511D01*
X130540221Y-83996275D01*
X130540220Y-83996275D01*
X130477650Y-84077818D01*
X130477644Y-84077828D01*
X130359665Y-84282171D01*
X130359660Y-84282180D01*
X130269370Y-84500162D01*
X130208299Y-84728085D01*
X130177500Y-84962014D01*
X125850500Y-84962014D01*
X125850500Y-78918475D01*
X130527000Y-78918475D01*
X130527000Y-81081517D01*
X130530651Y-81104566D01*
X130541854Y-81175304D01*
X130599450Y-81288342D01*
X130599452Y-81288344D01*
X130599454Y-81288347D01*
X130689152Y-81378045D01*
X130689154Y-81378046D01*
X130689158Y-81378050D01*
X130802194Y-81435645D01*
X130802198Y-81435647D01*
X130895975Y-81450499D01*
X130895981Y-81450500D01*
X133059018Y-81450499D01*
X133152804Y-81435646D01*
X133265842Y-81378050D01*
X133355550Y-81288342D01*
X133413146Y-81175304D01*
X133413146Y-81175302D01*
X133413147Y-81175301D01*
X133428000Y-81081524D01*
X133428000Y-80166379D01*
X165819500Y-80166379D01*
X165819500Y-80353620D01*
X165856025Y-80537243D01*
X165856027Y-80537251D01*
X165927676Y-80710228D01*
X165927681Y-80710237D01*
X166031697Y-80865907D01*
X166031700Y-80865911D01*
X166164088Y-80998299D01*
X166164092Y-80998302D01*
X166319762Y-81102318D01*
X166319771Y-81102323D01*
X166325184Y-81104565D01*
X166492749Y-81173973D01*
X166676379Y-81210499D01*
X166676383Y-81210500D01*
X166676384Y-81210500D01*
X166863617Y-81210500D01*
X166863618Y-81210499D01*
X167047251Y-81173973D01*
X167220231Y-81102322D01*
X167375908Y-80998302D01*
X167508302Y-80865908D01*
X167612322Y-80710231D01*
X167683973Y-80537251D01*
X167720500Y-80353616D01*
X167720500Y-80166384D01*
X167720499Y-80166379D01*
X181059500Y-80166379D01*
X181059500Y-80353620D01*
X181096025Y-80537243D01*
X181096027Y-80537251D01*
X181167676Y-80710228D01*
X181167681Y-80710237D01*
X181271697Y-80865907D01*
X181271700Y-80865911D01*
X181404088Y-80998299D01*
X181404092Y-80998302D01*
X181559762Y-81102318D01*
X181559771Y-81102323D01*
X181565184Y-81104565D01*
X181732749Y-81173973D01*
X181916379Y-81210499D01*
X181916383Y-81210500D01*
X181916384Y-81210500D01*
X182103617Y-81210500D01*
X182103618Y-81210499D01*
X182287251Y-81173973D01*
X182460231Y-81102322D01*
X182615908Y-80998302D01*
X182748302Y-80865908D01*
X182799025Y-80789995D01*
X236042300Y-80789995D01*
X236042300Y-80950005D01*
X236083714Y-81104564D01*
X236083715Y-81104565D01*
X236083715Y-81104566D01*
X236163716Y-81243133D01*
X236163718Y-81243136D01*
X236163719Y-81243137D01*
X236276863Y-81356281D01*
X236276864Y-81356282D01*
X236276866Y-81356283D01*
X236314568Y-81378050D01*
X236415436Y-81436286D01*
X236569995Y-81477700D01*
X236569997Y-81477700D01*
X236730002Y-81477700D01*
X236730005Y-81477700D01*
X236884564Y-81436286D01*
X237023137Y-81356281D01*
X237136281Y-81243137D01*
X237216286Y-81104564D01*
X237257700Y-80950005D01*
X237257700Y-80789995D01*
X237216286Y-80635436D01*
X237136281Y-80496863D01*
X237023137Y-80383719D01*
X237023136Y-80383718D01*
X237023133Y-80383716D01*
X236884566Y-80303715D01*
X236884565Y-80303714D01*
X236884564Y-80303714D01*
X236730005Y-80262300D01*
X236569995Y-80262300D01*
X236415436Y-80303714D01*
X236415434Y-80303715D01*
X236415433Y-80303715D01*
X236276866Y-80383716D01*
X236276861Y-80383720D01*
X236163720Y-80496861D01*
X236163716Y-80496866D01*
X236083715Y-80635433D01*
X236083715Y-80635434D01*
X236083714Y-80635436D01*
X236042300Y-80789995D01*
X182799025Y-80789995D01*
X182850488Y-80712977D01*
X182850488Y-80712976D01*
X182852316Y-80710240D01*
X182852318Y-80710237D01*
X182852322Y-80710231D01*
X182923973Y-80537251D01*
X182960500Y-80353616D01*
X182960500Y-80166384D01*
X182923973Y-79982749D01*
X182852322Y-79809769D01*
X182852321Y-79809768D01*
X182852318Y-79809762D01*
X182748302Y-79654092D01*
X182748299Y-79654088D01*
X182615911Y-79521700D01*
X182615907Y-79521697D01*
X182460237Y-79417681D01*
X182460228Y-79417676D01*
X182287251Y-79346027D01*
X182287243Y-79346025D01*
X182103620Y-79309500D01*
X182103616Y-79309500D01*
X181916384Y-79309500D01*
X181916379Y-79309500D01*
X181732756Y-79346025D01*
X181732748Y-79346027D01*
X181559771Y-79417676D01*
X181559762Y-79417681D01*
X181404092Y-79521697D01*
X181404088Y-79521700D01*
X181271700Y-79654088D01*
X181271697Y-79654092D01*
X181167681Y-79809762D01*
X181167676Y-79809771D01*
X181096027Y-79982748D01*
X181096025Y-79982756D01*
X181059500Y-80166379D01*
X167720499Y-80166379D01*
X167683973Y-79982749D01*
X167612322Y-79809769D01*
X167612321Y-79809768D01*
X167612318Y-79809762D01*
X167508302Y-79654092D01*
X167508299Y-79654088D01*
X167375911Y-79521700D01*
X167375907Y-79521697D01*
X167220237Y-79417681D01*
X167220228Y-79417676D01*
X167047251Y-79346027D01*
X167047243Y-79346025D01*
X166863620Y-79309500D01*
X166863616Y-79309500D01*
X166676384Y-79309500D01*
X166676379Y-79309500D01*
X166492756Y-79346025D01*
X166492748Y-79346027D01*
X166319771Y-79417676D01*
X166319762Y-79417681D01*
X166164092Y-79521697D01*
X166164088Y-79521700D01*
X166031700Y-79654088D01*
X166031697Y-79654092D01*
X165927681Y-79809762D01*
X165927676Y-79809771D01*
X165856027Y-79982748D01*
X165856025Y-79982756D01*
X165819500Y-80166379D01*
X133428000Y-80166379D01*
X133428000Y-80160292D01*
X133427999Y-78918482D01*
X133427998Y-78918475D01*
X133413146Y-78824696D01*
X133355550Y-78711658D01*
X133355546Y-78711654D01*
X133355545Y-78711652D01*
X133265847Y-78621954D01*
X133265844Y-78621952D01*
X133265842Y-78621950D01*
X133189017Y-78582805D01*
X133152801Y-78564352D01*
X133059024Y-78549500D01*
X130895982Y-78549500D01*
X130815052Y-78562318D01*
X130802196Y-78564354D01*
X130689158Y-78621950D01*
X130689157Y-78621951D01*
X130689152Y-78621954D01*
X130599454Y-78711652D01*
X130599451Y-78711657D01*
X130541852Y-78824698D01*
X130527000Y-78918475D01*
X125850500Y-78918475D01*
X125850500Y-77626379D01*
X165819500Y-77626379D01*
X165819500Y-77813620D01*
X165856025Y-77997243D01*
X165856027Y-77997251D01*
X165927676Y-78170228D01*
X165927681Y-78170237D01*
X166031697Y-78325907D01*
X166031700Y-78325911D01*
X166164088Y-78458299D01*
X166164092Y-78458302D01*
X166319762Y-78562318D01*
X166319771Y-78562323D01*
X166358956Y-78578554D01*
X166492749Y-78633973D01*
X166676379Y-78670499D01*
X166676383Y-78670500D01*
X166676384Y-78670500D01*
X166863617Y-78670500D01*
X166863618Y-78670499D01*
X167047251Y-78633973D01*
X167220231Y-78562322D01*
X167375908Y-78458302D01*
X167508302Y-78325908D01*
X167612322Y-78170231D01*
X167683973Y-77997251D01*
X167720500Y-77813616D01*
X167720500Y-77626384D01*
X167720499Y-77626379D01*
X181059500Y-77626379D01*
X181059500Y-77813620D01*
X181096025Y-77997243D01*
X181096027Y-77997251D01*
X181167676Y-78170228D01*
X181167681Y-78170237D01*
X181271697Y-78325907D01*
X181271700Y-78325911D01*
X181404088Y-78458299D01*
X181404092Y-78458302D01*
X181559762Y-78562318D01*
X181559771Y-78562323D01*
X181598956Y-78578554D01*
X181732749Y-78633973D01*
X181916379Y-78670499D01*
X181916383Y-78670500D01*
X181916384Y-78670500D01*
X182103617Y-78670500D01*
X182103618Y-78670499D01*
X182287251Y-78633973D01*
X182460231Y-78562322D01*
X182615908Y-78458302D01*
X182748302Y-78325908D01*
X182852322Y-78170231D01*
X182906268Y-78039995D01*
X212792300Y-78039995D01*
X212792300Y-78200005D01*
X212833714Y-78354564D01*
X212833715Y-78354565D01*
X212833715Y-78354566D01*
X212913716Y-78493133D01*
X212913718Y-78493136D01*
X212913719Y-78493137D01*
X213026863Y-78606281D01*
X213026864Y-78606282D01*
X213026866Y-78606283D01*
X213054004Y-78621951D01*
X213165436Y-78686286D01*
X213319995Y-78727700D01*
X213319997Y-78727700D01*
X213480002Y-78727700D01*
X213480005Y-78727700D01*
X213634564Y-78686286D01*
X213773137Y-78606281D01*
X213886281Y-78493137D01*
X213966286Y-78354564D01*
X214007700Y-78200005D01*
X214007700Y-78039995D01*
X213966286Y-77885436D01*
X213886281Y-77746863D01*
X213773137Y-77633719D01*
X213773136Y-77633718D01*
X213773133Y-77633716D01*
X213634566Y-77553715D01*
X213634565Y-77553714D01*
X213634564Y-77553714D01*
X213480005Y-77512300D01*
X213319995Y-77512300D01*
X213165436Y-77553714D01*
X213165434Y-77553715D01*
X213165433Y-77553715D01*
X213026866Y-77633716D01*
X213026861Y-77633720D01*
X212913720Y-77746861D01*
X212913716Y-77746866D01*
X212833715Y-77885433D01*
X212833715Y-77885434D01*
X212833714Y-77885436D01*
X212792300Y-78039995D01*
X182906268Y-78039995D01*
X182923973Y-77997251D01*
X182960500Y-77813616D01*
X182960500Y-77626384D01*
X182923973Y-77442749D01*
X182852322Y-77269769D01*
X182852321Y-77269768D01*
X182852318Y-77269762D01*
X182748302Y-77114092D01*
X182748299Y-77114088D01*
X182615911Y-76981700D01*
X182615907Y-76981697D01*
X182460237Y-76877681D01*
X182460228Y-76877676D01*
X182287251Y-76806027D01*
X182287243Y-76806025D01*
X182103620Y-76769500D01*
X182103616Y-76769500D01*
X181916384Y-76769500D01*
X181916379Y-76769500D01*
X181732756Y-76806025D01*
X181732748Y-76806027D01*
X181559771Y-76877676D01*
X181559762Y-76877681D01*
X181404092Y-76981697D01*
X181404088Y-76981700D01*
X181271700Y-77114088D01*
X181271697Y-77114092D01*
X181167681Y-77269762D01*
X181167676Y-77269771D01*
X181096027Y-77442748D01*
X181096025Y-77442756D01*
X181059500Y-77626379D01*
X167720499Y-77626379D01*
X167683973Y-77442749D01*
X167612322Y-77269769D01*
X167612321Y-77269768D01*
X167612318Y-77269762D01*
X167508302Y-77114092D01*
X167508299Y-77114088D01*
X167375911Y-76981700D01*
X167375907Y-76981697D01*
X167220237Y-76877681D01*
X167220228Y-76877676D01*
X167047251Y-76806027D01*
X167047243Y-76806025D01*
X166863620Y-76769500D01*
X166863616Y-76769500D01*
X166676384Y-76769500D01*
X166676379Y-76769500D01*
X166492756Y-76806025D01*
X166492748Y-76806027D01*
X166319771Y-76877676D01*
X166319762Y-76877681D01*
X166164092Y-76981697D01*
X166164088Y-76981700D01*
X166031700Y-77114088D01*
X166031697Y-77114092D01*
X165927681Y-77269762D01*
X165927676Y-77269771D01*
X165856027Y-77442748D01*
X165856025Y-77442756D01*
X165819500Y-77626379D01*
X125850500Y-77626379D01*
X125850500Y-75086379D01*
X165819500Y-75086379D01*
X165819500Y-75273620D01*
X165856025Y-75457243D01*
X165856027Y-75457251D01*
X165927676Y-75630228D01*
X165927681Y-75630237D01*
X166031697Y-75785907D01*
X166031700Y-75785911D01*
X166164088Y-75918299D01*
X166164092Y-75918302D01*
X166319762Y-76022318D01*
X166319768Y-76022321D01*
X166319769Y-76022322D01*
X166492749Y-76093973D01*
X166676379Y-76130499D01*
X166676383Y-76130500D01*
X166676384Y-76130500D01*
X166863617Y-76130500D01*
X166863618Y-76130499D01*
X167047251Y-76093973D01*
X167220231Y-76022322D01*
X167375908Y-75918302D01*
X167508302Y-75785908D01*
X167612322Y-75630231D01*
X167683973Y-75457251D01*
X167720500Y-75273616D01*
X167720500Y-75086384D01*
X167720499Y-75086379D01*
X181059500Y-75086379D01*
X181059500Y-75273620D01*
X181096025Y-75457243D01*
X181096027Y-75457251D01*
X181167676Y-75630228D01*
X181167681Y-75630237D01*
X181271697Y-75785907D01*
X181271700Y-75785911D01*
X181404088Y-75918299D01*
X181404092Y-75918302D01*
X181559762Y-76022318D01*
X181559768Y-76022321D01*
X181559769Y-76022322D01*
X181732749Y-76093973D01*
X181916379Y-76130499D01*
X181916383Y-76130500D01*
X181916384Y-76130500D01*
X182103617Y-76130500D01*
X182103618Y-76130499D01*
X182287251Y-76093973D01*
X182460231Y-76022322D01*
X182615908Y-75918302D01*
X182748302Y-75785908D01*
X182852322Y-75630231D01*
X182923973Y-75457251D01*
X182960500Y-75273616D01*
X182960500Y-75086384D01*
X182923973Y-74902749D01*
X182852322Y-74729769D01*
X182852321Y-74729768D01*
X182852318Y-74729762D01*
X182748302Y-74574092D01*
X182748299Y-74574088D01*
X182615911Y-74441700D01*
X182615907Y-74441697D01*
X182460237Y-74337681D01*
X182460228Y-74337676D01*
X182287251Y-74266027D01*
X182287243Y-74266025D01*
X182103620Y-74229500D01*
X182103616Y-74229500D01*
X181916384Y-74229500D01*
X181916379Y-74229500D01*
X181732756Y-74266025D01*
X181732748Y-74266027D01*
X181559771Y-74337676D01*
X181559762Y-74337681D01*
X181404092Y-74441697D01*
X181404088Y-74441700D01*
X181271700Y-74574088D01*
X181271697Y-74574092D01*
X181167681Y-74729762D01*
X181167676Y-74729771D01*
X181096027Y-74902748D01*
X181096025Y-74902756D01*
X181059500Y-75086379D01*
X167720499Y-75086379D01*
X167683973Y-74902749D01*
X167612322Y-74729769D01*
X167612321Y-74729768D01*
X167612318Y-74729762D01*
X167508302Y-74574092D01*
X167508299Y-74574088D01*
X167375911Y-74441700D01*
X167375907Y-74441697D01*
X167220237Y-74337681D01*
X167220228Y-74337676D01*
X167047251Y-74266027D01*
X167047243Y-74266025D01*
X166863620Y-74229500D01*
X166863616Y-74229500D01*
X166676384Y-74229500D01*
X166676379Y-74229500D01*
X166492756Y-74266025D01*
X166492748Y-74266027D01*
X166319771Y-74337676D01*
X166319762Y-74337681D01*
X166164092Y-74441697D01*
X166164088Y-74441700D01*
X166031700Y-74574088D01*
X166031697Y-74574092D01*
X165927681Y-74729762D01*
X165927676Y-74729771D01*
X165856027Y-74902748D01*
X165856025Y-74902756D01*
X165819500Y-75086379D01*
X125850500Y-75086379D01*
X125850500Y-72546379D01*
X165819500Y-72546379D01*
X165819500Y-72733620D01*
X165856025Y-72917243D01*
X165856027Y-72917251D01*
X165927676Y-73090228D01*
X165927681Y-73090237D01*
X166031697Y-73245907D01*
X166031700Y-73245911D01*
X166164088Y-73378299D01*
X166164092Y-73378302D01*
X166319762Y-73482318D01*
X166319768Y-73482321D01*
X166319769Y-73482322D01*
X166492749Y-73553973D01*
X166676379Y-73590499D01*
X166676383Y-73590500D01*
X166676384Y-73590500D01*
X166863617Y-73590500D01*
X166863618Y-73590499D01*
X167047251Y-73553973D01*
X167220231Y-73482322D01*
X167375908Y-73378302D01*
X167508302Y-73245908D01*
X167612322Y-73090231D01*
X167683973Y-72917251D01*
X167720500Y-72733616D01*
X167720500Y-72546384D01*
X167720499Y-72546379D01*
X181059500Y-72546379D01*
X181059500Y-72733620D01*
X181096025Y-72917243D01*
X181096027Y-72917251D01*
X181167676Y-73090228D01*
X181167681Y-73090237D01*
X181271697Y-73245907D01*
X181271700Y-73245911D01*
X181404088Y-73378299D01*
X181404092Y-73378302D01*
X181559762Y-73482318D01*
X181559768Y-73482321D01*
X181559769Y-73482322D01*
X181732749Y-73553973D01*
X181916379Y-73590499D01*
X181916383Y-73590500D01*
X181916384Y-73590500D01*
X182103617Y-73590500D01*
X182103618Y-73590499D01*
X182287251Y-73553973D01*
X182460231Y-73482322D01*
X182615908Y-73378302D01*
X182683519Y-73310691D01*
X184449500Y-73310691D01*
X184449500Y-73429309D01*
X184480201Y-73543886D01*
X184539511Y-73646613D01*
X184623387Y-73730489D01*
X184726114Y-73789799D01*
X184840691Y-73820500D01*
X184840694Y-73820500D01*
X184959306Y-73820500D01*
X184959309Y-73820500D01*
X185073886Y-73789799D01*
X185176613Y-73730489D01*
X185260489Y-73646613D01*
X185319799Y-73543886D01*
X185350500Y-73429309D01*
X185350500Y-73310691D01*
X185319799Y-73196114D01*
X185260489Y-73093387D01*
X185176613Y-73009511D01*
X185073886Y-72950201D01*
X184959309Y-72919500D01*
X184840691Y-72919500D01*
X184726114Y-72950201D01*
X184726112Y-72950201D01*
X184726112Y-72950202D01*
X184623387Y-73009511D01*
X184623384Y-73009513D01*
X184539513Y-73093384D01*
X184539511Y-73093387D01*
X184480201Y-73196114D01*
X184449500Y-73310691D01*
X182683519Y-73310691D01*
X182748302Y-73245908D01*
X182751556Y-73241036D01*
X182756479Y-73233671D01*
X182756479Y-73233670D01*
X182781575Y-73196112D01*
X182852322Y-73090231D01*
X182923973Y-72917251D01*
X182960500Y-72733616D01*
X182960500Y-72546384D01*
X182923973Y-72362749D01*
X182852322Y-72189769D01*
X182852321Y-72189768D01*
X182852318Y-72189762D01*
X182748302Y-72034092D01*
X182748299Y-72034088D01*
X182615911Y-71901700D01*
X182615907Y-71901697D01*
X182460237Y-71797681D01*
X182460228Y-71797676D01*
X182287251Y-71726027D01*
X182287243Y-71726025D01*
X182103620Y-71689500D01*
X182103616Y-71689500D01*
X181916384Y-71689500D01*
X181916379Y-71689500D01*
X181732756Y-71726025D01*
X181732748Y-71726027D01*
X181559771Y-71797676D01*
X181559762Y-71797681D01*
X181404092Y-71901697D01*
X181404088Y-71901700D01*
X181271700Y-72034088D01*
X181271697Y-72034092D01*
X181167681Y-72189762D01*
X181167676Y-72189771D01*
X181096027Y-72362748D01*
X181096025Y-72362756D01*
X181059500Y-72546379D01*
X167720499Y-72546379D01*
X167683973Y-72362749D01*
X167612322Y-72189769D01*
X167612321Y-72189768D01*
X167612318Y-72189762D01*
X167508302Y-72034092D01*
X167508299Y-72034088D01*
X167375911Y-71901700D01*
X167375907Y-71901697D01*
X167220237Y-71797681D01*
X167220228Y-71797676D01*
X167047251Y-71726027D01*
X167047243Y-71726025D01*
X166863620Y-71689500D01*
X166863616Y-71689500D01*
X166676384Y-71689500D01*
X166676379Y-71689500D01*
X166492756Y-71726025D01*
X166492748Y-71726027D01*
X166319771Y-71797676D01*
X166319762Y-71797681D01*
X166164092Y-71901697D01*
X166164088Y-71901700D01*
X166031700Y-72034088D01*
X166031697Y-72034092D01*
X165927681Y-72189762D01*
X165927676Y-72189771D01*
X165856027Y-72362748D01*
X165856025Y-72362756D01*
X165819500Y-72546379D01*
X125850500Y-72546379D01*
X125850500Y-70467495D01*
X195927300Y-70467495D01*
X195927300Y-70627505D01*
X195968714Y-70782064D01*
X195968715Y-70782065D01*
X195968715Y-70782066D01*
X196048716Y-70920633D01*
X196048718Y-70920636D01*
X196048719Y-70920637D01*
X196161863Y-71033781D01*
X196300436Y-71113786D01*
X196454995Y-71155200D01*
X196454997Y-71155200D01*
X196615002Y-71155200D01*
X196615005Y-71155200D01*
X196769564Y-71113786D01*
X196908137Y-71033781D01*
X197021281Y-70920637D01*
X197101286Y-70782064D01*
X197142700Y-70627505D01*
X197142700Y-70467495D01*
X197101286Y-70312936D01*
X197021281Y-70174363D01*
X196908137Y-70061219D01*
X196908136Y-70061218D01*
X196908133Y-70061216D01*
X196769566Y-69981215D01*
X196769565Y-69981214D01*
X196769564Y-69981214D01*
X196615005Y-69939800D01*
X196454995Y-69939800D01*
X196300436Y-69981214D01*
X196300434Y-69981215D01*
X196300433Y-69981215D01*
X196161866Y-70061216D01*
X196161861Y-70061220D01*
X196048720Y-70174361D01*
X196048716Y-70174366D01*
X195968715Y-70312933D01*
X195968715Y-70312934D01*
X195968714Y-70312936D01*
X195927300Y-70467495D01*
X125850500Y-70467495D01*
X125850500Y-63444500D01*
X125870185Y-63377461D01*
X125922989Y-63331706D01*
X125974500Y-63320500D01*
X253075500Y-63320500D01*
X253142539Y-63340185D01*
G37*
G04 #@! TD.AperFunction*
M02*
