M48
; DRILL file KiCad 10.0.4 date 2026-07-23T08:16:57
; FORMAT={-:-/ absolute / metric / decimal}
; #@! TF.CreationDate,2026-07-23T08:16:57+10:00
; #@! TF.GenerationSoftware,Kicad,Pcbnew,10.0.4
; #@! TF.FileFunction,Plated,1,4,PTH
FMAT,2
METRIC
; #@! TA.AperFunction,Plated,PTH,ViaDrill
T1C0.300
; #@! TA.AperFunction,Plated,PTH,ViaDrill
T2C0.508
; #@! TA.AperFunction,Plated,PTH,ComponentDrill
T3C1.000
; #@! TA.AperFunction,Plated,PTH,ComponentDrill
T4C1.020
; #@! TA.AperFunction,Plated,PTH,ComponentDrill
T5C1.300
; #@! TA.AperFunction,Plated,PTH,ComponentDrill
T6C1.850
; #@! TA.AperFunction,Plated,PTH,ComponentDrill
T7C2.200
%
G90
G05
T1
X184.9Y-73.37
X185.4Y-94.12
X186.9Y-97.87
X188.433Y-88.587
X189.6Y-85.42
X189.6Y-90.62
X189.65Y-86.62
X189.65Y-92.62
X191.4Y-95.02
X198.4Y-95.02
X199.6Y-84.62
X203.9Y-89.12
X203.9Y-91.12
X206.0Y-88.42
X206.0Y-93.22
X206.4Y-98.62
X206.4Y-100.22
X206.4Y-105.22
X214.8Y-87.62
X215.4Y-90.22
X215.4Y-94.82
X215.4Y-99.82
X216.4Y-79.82
X220.0Y-91.82
X224.8Y-86.62
X225.0Y-98.42
X229.4Y-90.42
X230.0Y-102.22
X234.4Y-88.37
X234.6Y-100.39
X236.4Y-90.37
X236.6Y-102.39
X238.4Y-83.82
X240.0Y-94.42
X240.6Y-91.22
X240.8Y-103.22
T2
X135.65Y-85.12
X135.65Y-90.12
X187.4Y-109.87
X188.9Y-109.87
X190.65Y-109.87
X191.212Y-76.12
X192.4Y-109.87
X193.9Y-100.12
X194.15Y-109.87
X195.9Y-100.12
X195.9Y-109.87
X196.4Y-90.12
X196.535Y-70.547
X197.65Y-109.87
X199.15Y-109.87
X200.65Y-82.37
X200.65Y-86.37
X200.65Y-92.734
X205.382Y-78.37
X207.9Y-93.37
X208.15Y-105.37
X213.4Y-78.12
X213.4Y-89.87
X217.9Y-88.37
X218.4Y-100.12
X226.4Y-88.87
X226.65Y-100.87
X234.9Y-94.37
X236.65Y-80.87
T3
X166.77Y-72.64
X166.77Y-75.18
X166.77Y-77.72
X166.77Y-80.26
X166.77Y-82.8
X166.77Y-85.34
X166.77Y-87.88
X166.77Y-90.42
X166.77Y-92.96
X166.77Y-95.5
X166.77Y-98.04
X166.77Y-100.58
X166.77Y-103.12
X166.77Y-105.66
X166.77Y-108.2
X182.01Y-72.64
X182.01Y-75.18
X182.01Y-77.72
X182.01Y-80.26
X182.01Y-82.8
X182.01Y-85.34
X182.01Y-87.88
X182.01Y-90.42
X182.01Y-92.96
X182.01Y-95.5
X182.01Y-98.04
X182.01Y-100.58
X182.01Y-103.12
X182.01Y-105.66
X182.01Y-108.2
T4
X247.86Y-90.12
X247.86Y-93.12
X247.86Y-102.12
X247.86Y-105.12
T5
X131.977Y-80.0
X131.977Y-85.08
X131.977Y-90.16
X131.977Y-95.24
T6
X146.2Y-83.67
X146.2Y-91.67
X156.2Y-85.17
X156.2Y-90.17
T7
X129.9Y-67.12
X129.9Y-112.62
X248.15Y-67.12
X248.15Y-112.62
M30
